<?xml version="1.0" encoding="UTF-8" standalone="no"?><!DOCTYPE svg PUBLIC "-//W3C//DTD SVG 1.1//EN" "http://www.w3.org/Graphics/SVG/1.1/DTD/svg11.dtd"><svg width="100%" height="100%" viewBox="0 0 292 292" version="1.1" xmlns="http://www.w3.org/2000/svg" xmlns:xlink="http://www.w3.org/1999/xlink" xml:space="preserve" xmlns:serif="http://www.serif.com/" style="fill-rule:evenodd;clip-rule:evenodd;stroke-linecap:round;stroke-linejoin:round;stroke-miterlimit:1.5;"><path d="M291.667,12.623l-0,266.36c-2.78,8.456 -9.721,12.684 -20.834,12.684l-254.166,-0c-8.334,-0 -13.888,-4.228 -16.667,-12.684l-0,-266.36c2.779,-5.636 8.333,-8.456 16.667,-8.456l254.166,-0c11.113,-0 18.054,2.82 20.834,8.456Z" style="fill:#4a5588;"/><g><path d="M153.334,287.766l-136.013,0.325c-8.334,-0 -14.839,-2.924 -17.321,-15.279l-0,-79.359l52.696,-53.151l23.339,-32.401l5.257,-6.168l8.719,-7.341l140.414,8.106l5.176,80.317c-0,0 0.579,4.896 -1.317,6.63c-15.839,14.487 -80.95,98.321 -80.95,98.321Z" style="fill-opacity:0.22;"/><path d="M94.836,119.053c-5.745,-7.553 -14.536,-12.419 -14.406,-12.607c1.98,-2.885 8.067,-8.775 9.151,-9.139c3.94,-1.323 140.544,-0.839 140.544,-0.839c3.022,0 5.476,2.473 5.476,5.518l-0,84.174c-0,3.046 -2.454,5.518 -5.476,5.518c-0,0 -135.406,1.664 -140.373,0.123c-4.782,-1.482 -37.047,-42.084 -37.056,-47.018c-0.006,-2.966 12.601,-20.02 23.164,-32.854c0.474,-0.577 9.796,6.721 13.262,11.518c3.968,5.493 5.435,12.528 4.968,12.528c-4.66,0 -8.443,3.784 -8.443,8.444c-0,4.659 3.783,8.443 8.443,8.443c4.66,-0 8.443,-3.784 8.443,-8.443c0,-2.541 -0.666,-4.853 -2.388,-6.416c-0.016,-0.015 2.811,-8.277 -5.309,-18.95Zm108.526,43.133c-0,-1.678 -1.363,-3.041 -3.042,-3.041l-63.897,-0c-1.678,-0 -3.041,1.363 -3.041,3.041l-0,6.083c-0,1.679 1.363,3.042 3.041,3.042l63.897,-0c1.679,-0 3.042,-1.363 3.042,-3.042l-0,-6.083Zm-16.126,-20.847c0,-1.658 -1.346,-3.003 -3.003,-3.003l-47.848,-0c-1.657,-0 -3.003,1.345 -3.003,3.003l-0,6.007c-0,1.658 1.346,3.004 3.003,3.004l47.848,0c1.657,0 3.003,-1.346 3.003,-3.004l0,-6.007Zm0,-20.809c0,-1.658 -1.346,-3.004 -3.003,-3.004l-47.848,0c-1.657,0 -3.003,1.346 -3.003,3.004l-0,6.007c-0,1.658 1.346,3.004 3.003,3.004l47.848,-0c1.657,-0 3.003,-1.346 3.003,-3.004l0,-6.007Z" style="fill-opacity:0.3;"/><path d="M94.836,115.074c-5.745,-7.553 -14.536,-12.418 -14.406,-12.607c1.98,-2.885 8.067,-8.775 9.151,-9.139c3.94,-1.323 140.544,-0.838 140.544,-0.838c3.022,-0 5.476,2.472 5.476,5.518l-0,84.174c-0,3.045 -2.454,5.517 -5.476,5.517c-0,0 -135.406,1.664 -140.373,0.124c-4.782,-1.483 -37.047,-42.085 -37.056,-47.019c-0.006,-2.966 12.601,-20.019 23.164,-32.854c0.474,-0.577 9.796,6.721 13.262,11.518c3.968,5.493 5.435,12.529 4.968,12.529c-4.66,-0 -8.443,3.783 -8.443,8.443c-0,4.66 3.783,8.443 8.443,8.443c4.66,0 8.443,-3.783 8.443,-8.443c0,-2.541 -0.666,-4.853 -2.388,-6.416c-0.016,-0.014 2.811,-8.276 -5.309,-18.95Zm108.526,43.134c-0,-1.679 -1.363,-3.042 -3.042,-3.042l-63.897,0c-1.678,0 -3.041,1.363 -3.041,3.042l-0,6.083c-0,1.678 1.363,3.041 3.041,3.041l63.897,0c1.679,0 3.042,-1.363 3.042,-3.041l-0,-6.083Zm-16.126,-20.848c0,-1.657 -1.346,-3.003 -3.003,-3.003l-47.848,-0c-1.657,-0 -3.003,1.346 -3.003,3.003l-0,6.008c-0,1.658 1.346,3.003 3.003,3.003l47.848,0c1.657,0 3.003,-1.345 3.003,-3.003l0,-6.008Zm0,-20.809c0,-1.657 -1.346,-3.003 -3.003,-3.003l-47.848,-0c-1.657,-0 -3.003,1.346 -3.003,3.003l-0,6.008c-0,1.657 1.346,3.003 3.003,3.003l47.848,0c1.657,0 3.003,-1.346 3.003,-3.003l0,-6.008Z" style="fill:#fff;"/><path d="M85.657,136.326c-0,-0 8.117,4.791 10.403,0.034c5.139,-10.697 -6.933,-27.546 -23.508,-33.623c-6.755,-2.477 -14.845,-4.229 -20.169,-10.334c-9.121,-10.46 -4.486,-39.791 22.673,-42.084" style="fill:none;stroke:#fff;stroke-width:2.92px;"/><path d="M291.667,275l-0,4.1c-2.78,8.333 -9.721,12.567 -20.834,12.567l-254.166,-0c-8.334,-0 -13.888,-4.167 -16.667,-12.5l-0,-4.167c2.779,8.333 8.333,12.5 16.667,12.5l254.166,0c11.113,0 18.054,-4.167 20.834,-12.5Z" style="fill-opacity:0.3;"/></g><path d="M-0,20.068l-0,-7.363c2.779,-10.376 8.333,-12.705 16.667,-12.705l254.166,-0c11.113,-0 18.055,2.582 20.834,12.958l-0,7.11c-2.779,-10.376 -9.721,-15.568 -20.834,-15.568l-254.166,0c-8.334,0 -13.888,5.192 -16.667,15.568Z" style="fill:#a2abda;"/></svg>