<?xml version="1.0" encoding="utf-8"?>
<!-- Generator: Adobe Illustrator 16.0.3, SVG Export Plug-In . SVG Version: 6.00 Build 0)  -->
<!DOCTYPE svg PUBLIC "-//W3C//DTD SVG 1.1//EN" "http://www.w3.org/Graphics/SVG/1.1/DTD/svg11.dtd">
<svg version="1.1" xmlns="http://www.w3.org/2000/svg" xmlns:xlink="http://www.w3.org/1999/xlink" x="0px" y="0px"
	 width="105.186px" height="104.586px" viewBox="0 0 105.186 104.586" enable-background="new 0 0 105.186 104.586"
	 xml:space="preserve">
<g id="Layer_3">
	
		<rect x="15.493" y="15.549" transform="matrix(-0.7071 0.7071 -0.7071 -0.7071 126.3005 52.3233)" fill="#FFFFFF" width="73.641" height="73.541"/>
	<path id="path3626" stroke="#000000" stroke-width="0.0649" stroke-linejoin="round" stroke-miterlimit="10" d="M0.415,51.993
		l-0.553,0.576l2.832,2.833l0.553-0.586L0.415,51.993z M6.067,57.614l-0.543,0.575l2.832,2.836l0.542-0.576L6.067,57.614z
		 M11.73,63.239l-0.542,0.585l2.831,2.822l0.542-0.576L11.73,63.239z M17.393,68.871l-0.553,0.574l2.831,2.822l0.555-0.576
		L17.393,68.871z M23.045,74.525L22.504,75.1l2.831,2.801l0.542-0.586L23.045,74.525z M28.708,80.146l-0.542,0.576l2.82,2.799
		l0.553-0.574L28.708,80.146z M34.372,85.77l-0.554,0.586l2.833,2.787l0.553-0.574L34.372,85.77z M40.024,91.402l-0.543,0.574
		l2.832,2.789l0.542-0.576L40.024,91.402z M45.687,97.021L45.145,97.6l2.82,2.83l0.556-0.584L45.687,97.021z M51.352,102.645
		l-0.555,0.574l1.352,1.318l0.262,0.298l1.791-1.803l-0.572-0.544l-1.513,1.507l0.295,0.253l0.291-0.288L51.352,102.645z
		 M56.46,99.656l0.576,0.543l2.794-2.822l-0.571-0.552L56.46,99.656z M62.091,94.001l0.575,0.542l2.832-2.799l-0.587-0.542
		L62.091,94.001L62.091,94.001z M67.744,88.379l0.586,0.543l2.816-2.832l-0.571-0.543L67.744,88.379z M73.373,82.714l0.573,0.556
		l2.83-2.836l-0.571-0.541L73.373,82.714z M79.036,77.059l0.571,0.555l2.833-2.801l-0.586-0.554L79.036,77.059z M84.684,71.438
		l0.588,0.543l2.789-2.822l-0.578-0.553L84.684,71.438z M90.314,65.783l0.578,0.542l2.832-2.833l-0.578-0.542L90.314,65.783z
		 M95.977,60.15l0.577,0.555l2.83-2.833L98.8,57.327L95.977,60.15L95.977,60.15z M101.631,54.494l0.585,0.554l2.767-2.766
		l-0.618-0.608l-0.577,0.578l0.324,0.317l0.286-0.287l-0.286-0.257L101.631,54.494z M100.956,49.416l0.586-0.576l-2.831-2.82
		l-0.587,0.577L100.956,49.416z M95.302,43.762l0.576-0.577l-2.798-2.801l-0.572,0.591L95.302,43.762z M89.673,38.14l0.575-0.577
		l-2.832-2.833l-0.575,0.576L89.673,38.14z M84.01,32.486l0.587-0.586l-2.832-2.825l-0.586,0.577L84.01,32.486z M78.362,26.832
		l0.571-0.585l-2.8-2.792l-0.57,0.576L78.362,26.832z M72.731,21.196l0.572-0.572l-2.831-2.834l-0.571,0.586L72.731,21.196z
		 M67.068,15.542l0.572-0.577l-2.816-2.83l-0.587,0.586L67.068,15.542z M61.438,9.919l0.588-0.577l-2.832-2.83l-0.578,0.577
		L61.438,9.919z M55.786,4.264l0.576-0.585l-2.831-2.82L52.954,1.43L55.786,4.264z M50.708,2.561l-0.586-0.586l-2.831,2.834
		l0.586,0.575L50.708,2.561z M45.045,8.218l-0.575-0.576l-2.831,2.787l0.575,0.585L45.045,8.218z M39.381,13.84l-0.573-0.576
		l-2.833,2.797l0.574,0.576L39.381,13.84z M33.73,19.462l-0.586-0.577l-2.832,2.796l0.585,0.578L33.73,19.462z M28.067,25.093
		l-0.575-0.584l-2.832,2.829l0.574,0.577L28.067,25.093z M22.404,30.714l-0.575-0.576l-2.832,2.821l0.575,0.589L22.404,30.714z
		 M16.752,36.336l-0.586-0.576l-2.832,2.835l0.587,0.576L16.752,36.336z M11.088,41.967l-0.574-0.585l-2.832,2.833l0.575,0.576
		L11.088,41.967z M5.392,47.589l-0.575-0.577l-2.832,2.825l0.587,0.576L5.392,47.589z"/>
	<path id="path3628" stroke="#000000" stroke-width="0.0649" stroke-linejoin="round" stroke-miterlimit="10" d="M52.147,97.598
		l0.229,0.223l0.254-0.221l45.084-45.063l0.221-0.254L52.377,6.733L52.148,7L6.808,52.063l-0.254,0.22l0.254,0.253L52.147,97.598z
		 M7.295,52.063l-0.255,0.22l0.255,0.253L52.631,7.474l-0.253-0.253l-0.229,0.252L97.23,52.537l0.219-0.255l-0.219-0.219
		l-45.083,45.06l0.23,0.221l0.253-0.221L7.295,52.063z"/>
	<path id="path3640" stroke="#000000" stroke-width="0.0673" stroke-linejoin="round" stroke-miterlimit="10" d="M51.08,86.396
		l0.034,0.457l0.126,0.403l0.209,0.333l0.296,0.264l0.335,0.139l0.397,0.033l0.371-0.034l0.331-0.138l0.263-0.229l0.175-0.333
		l0.125-0.4l0.034-0.471l-0.033-0.426l-0.126-0.365l-0.21-0.3l-0.262-0.241l-0.331-0.126l-0.402-0.034l-0.403,0.035l-0.296,0.126
		l-0.263,0.239l-0.209,0.265l-0.125,0.369L51.08,86.396z M51.045,84.125l0.336-0.266l0.398-0.205l0.438-0.127l0.491-0.033
		l0.607,0.066l0.563,0.127l0.473,0.242l0.433,0.366l0.335,0.39l0.263,0.506l0.126,0.563l0.067,0.607l-0.067,0.666l-0.159,0.597
		l-0.263,0.528l-0.371,0.471l-0.466,0.366l-0.506,0.264l-0.597,0.172l-0.666,0.034l-0.77-0.068l-0.631-0.205l-0.574-0.355
		l-0.456-0.471l-0.369-0.631l-0.263-0.735l-0.171-0.872l-0.033-0.997l0.033-1.067l0.171-0.964l0.295-0.803l0.37-0.666l0.49-0.526
		l0.613-0.367l0.694-0.24l0.793-0.092l0.7,0.067l0.642,0.195l0.529,0.366l0.397,0.437l0.269,0.563l0.103,0.631h-1.764l-0.107-0.367
		l-0.229-0.264l-0.331-0.16l-0.438-0.035l-0.402,0.057l-0.332,0.174l-0.262,0.332l-0.209,0.437l-0.126,0.596L51.045,84.125z"/>
</g>
<g id="Layer_2">
	<path d="M48.638,30.98c2.314-1.842,5.594-1.842,7.908,0c0.56-0.495,1.027-1.084,1.382-1.741c-3.124-2.483-7.548-2.483-10.671,0
		C47.606,29.9,48.074,30.491,48.638,30.98z"/>
	<path d="M61.99,30.524c0.016-0.097,0.03-0.193,0.043-0.29c0.702-5.214-2.956-10.009-8.17-10.711v0.354
		c3.018,0.585,5.244,3.158,5.391,6.229c0.175,3.679-2.665,6.803-6.344,6.978v0.987c0.118,0.02,0.234,0.051,0.347,0.093
		c0.986,0.367,1.488,1.464,1.122,2.45l0.854,0.494c1.662-2.586,4.876-3.701,7.782-2.699c3.481,1.2,5.331,4.995,4.131,8.477
		l0.307,0.178c0.037-0.091,0.073-0.182,0.107-0.273C69.409,37.865,66.915,32.373,61.99,30.524z"/>
	<path d="M54.92,41.859c0.148,0.731,0.425,1.432,0.816,2.066c3.713-1.463,5.925-5.294,5.336-9.241
		c-0.747-0.028-1.492,0.082-2.199,0.326C59.311,37.935,57.672,40.775,54.92,41.859z"/>
	<path d="M57.787,46.639c-3.273-1.688-4.559-5.709-2.871-8.982l-0.854-0.493c-0.077,0.092-0.162,0.177-0.254,0.253
		c-0.812,0.671-2.012,0.557-2.683-0.253l-0.854,0.493c1.408,2.732,0.767,6.074-1.554,8.089c-2.78,2.415-6.992,2.119-9.407-0.661
		l-0.307,0.177c0.06,0.078,0.121,0.154,0.183,0.229c3.341,4.064,9.344,4.65,13.407,1.309c0.076,0.063,0.152,0.123,0.229,0.183
		c4.165,3.215,10.146,2.444,13.361-1.721l-0.308-0.177C63.86,47.406,60.519,48.048,57.787,46.639z"/>
	<path d="M40.738,35.103c3.098-1.991,7.224-1.094,9.214,2.004l0.855-0.494c-0.042-0.112-0.073-0.229-0.093-0.347
		c-0.175-1.037,0.523-2.021,1.561-2.196v-0.987c-3.07-0.146-5.643-2.373-6.229-5.391c-0.701-3.615,1.661-7.114,5.276-7.815v-0.355
		c-0.097,0.013-0.193,0.028-0.29,0.044c-5.189,0.861-8.698,5.767-7.837,10.957c-0.091,0.034-0.183,0.07-0.273,0.107
		c-4.866,2-7.19,7.565-5.19,12.432l0.307-0.178C37.037,39.979,38.152,36.765,40.738,35.103z"/>
	<path d="M44.114,34.684c-0.589,3.947,1.623,7.778,5.336,9.241c0.398-0.632,0.675-1.333,0.817-2.066
		c-2.752-1.084-4.392-3.924-3.954-6.849C45.604,34.773,44.86,34.663,44.114,34.684z"/>
</g>
</svg>
