<?xml version="1.0"?>
<svg xmlns="http://www.w3.org/2000/svg" viewBox="0 0 720 720">
<g stroke="#000" stroke-width="9">
<path d="m361.5 713l351.5-353.3-351.5-352.7-354.5 352.7z" stroke-dashoffset="72" stroke-dasharray="46,24" fill="#fff"/>
<path stroke-linejoin="round" d="m55.6 359.8l305.7 303.6 303.1-303.6-303.1-303.2z" fill="none"/></g><path d="m255.5 191.5c-5.23 2.79-5.63 8.24-5.9 11.84-.08 1.11-.21 2.78-.47 3.27-.3.51-1.8 1.63-2.79 2.38-3.3 2.48-7.81 5.87-7.81 11.77 0 10.38 12.39 14.99 18 15.51 2.72.25 6.63-.48 10.4-1.19 1.54-.29 3.55-.66 4.37-.72 3.24.69 22.62 7.15 35.56 11.47 8.4 2.8 15.83 5.28 19.82 6.54v.13c-8.84 3.41-39.56 13.77-44.2 15.19-2.55.78-13.2.39-17.21.24l-3.84-.11c-4.45 0-13.17 3.34-17.74 10.51-1.24 1.95-1.64 3.7-1.64 5.14 0 .87.15 1.63.34 2.25 1.29 4.15 5.56 5.95 8.98 7.4.85.36 2.03.86 2.71 1.25 0 .09.001.14.001.24 0 .64-.04 1.48-.07 2.17-.04.95-.1 2-.1 3.13 0 3.69.31 9.41 3.43 12.69 2.63 2.76 7.11 3.17 12.18 3.17 9.47 0 17.88-11.54 24.3-19.69 1.5-1.92 2.93-4.09 3.76-4.56 2.85-1.6 15.94-7.66 25.58-11.62l16.1-5.5c5.7 3.33 12.21 4.36 22.7 4.36 7.85 0 14.5-1.37 19.9-4.07 5.35 2.76 16.95 8.72 18.86 9.54 2.73 1.17 7.5 2.1 11.16 2.25 2.99 1.82 14.9 12.92 22.2 21.5 4.52 5.31 10.55 5.19 12.52 5.15h.3c6.48 0 13.23-3.72 15.7-8.65.72-1.45.98-2.84.98-4.11 0-1.85-.53-3.44-.91-4.59 0 0-.06-.21-.11-.38.69-.64 1.73-1.52 2.57-2.23 3.93-3.31 8.39-7.1 9.75-11.42.3-.95.44-1.9.44-2.83 0-1.83-.57-3.57-1.68-5.09-4.88-6.64-19.68-7.97-41.97-7.97-6.24 0-16.24-4.24-27.83-9.15l-6.63-2.78c.18-.88.33-1.75.45-2.61l11.65-3.69c11.47-3.67 32.84-10.49 36.1-10.71 1.23 0 2.55.36 4.23.82 2.38.65 5.34 1.45 9.31 1.45 8.42 0 20.39-9.2 20.39-17.8 0-6.51-5.16-8.63-8.24-9.9-1.59-.66-3.1-1.27-3.98-2.23-1.04-1.13-1.26-2.76-1.49-5.31-.24-2.61-.51-5.56-2.52-8.1-1.69-2.11-4.59-3.26-8.87-3.49-3.68-.2-12.27.37-15.34 3.44l-1.52 1.78c-2.55 3.13-8.22 10.1-16.99 16.54 1.59-5.96 1.86-12.9 1.86-19.68 0-23.45-7.26-38.91-7.57-39.56-.22-.47-.52-.89-.89-1.26-3.19-3.15-31.72-30.81-51.5-30.81-33.75 0-60.3 29.44-61.4 30.7-.39.44-.69.95-.88 1.51-.21.6-5.12 14.91-5.12 36.2 0 9.49.88 17.1 2.7 23.2-8.72-6-13.25-12.38-16.28-16.65l-2.06-2.82c-6.2-7.85-16.43-7.39-23.81-3.46m65.1 79.8c-16 6.59-26 10.8-29.1 13.62-1.25 1.15-3.37 3.25-5.41 5.87-4 5.15-11.76 15.65-16.84 15.65-1.73 0-4-.24-5.09-1.37-.97-1.02-1.2-3-1.2-5.06 0-.93.05-1.88.09-2.76.04-.89.08-1.74.08-2.55 0-1.74-.19-3.31-.96-4.73-1.44-2.64-4.4-3.89-7.25-5.11-1.01-.43-2.69-1.15-3.56-1.73 2.68-4.15 8.28-6.29 10.1-6.29l3.51.11c8.53.32 16.49.51 20.2-.63 3.55-1.09 31.65-9.46 43.1-13.74.6 1.91 1.71 3.45 2.84 5.17l-10.55 3.54m62.2-9.1c-4.43 4.69-11.17 7.1-20.87 7.1-11.14 0-17.76-1.27-21.54-5.22-3-3.14-3.42-5.58-3.93-10.9 4.96 4.85 12.85 5.92 25.3 5.92 10.37 0 20.31-.85 25.51-5.16-.63 4.3-1.06 4.73-4.43 8.3m17.64 2.84c13 5.51 24.1 8.2 31.3 9.87 1.56.36 28.1-3 32.76 4.2.73 1.12-3.45 4.9-5.68 6.77-3.17 2.67-3.41 2.28-4.63 3.87-.43.56-2.47 6.28-2.47 6.91 0 1.5 1.76 2.78 1.69 3.56-.07.78-3.4 3.21-6.81 3.21-5.93 0-8.37-5.52-13.52-10.71-9.76-9.84-18.93-16.68-20.54-16.68-2.65 0-8.09-.98-9.75-1.69-1.14-.49-7.82-3.13-14.21-6.42 1.82-1.96 3.88-2.99 5-5.17l6.81 2.29m43.98-61.69s.42-.5.69-.83c2.09-.97 9-1.55 11.14-.72.25.61.39 2 .48 3 .28 3 .66 7.14 3.84 10.59 2.23 2.42 4.97 3.55 7.17 4.45.94.39 2.33.96 2.65 1.32 0 .04 0 .13 0 .26 0 2.8-7.15 8.79-11.39 8.79-2.77 0-4.8-.55-6.95-1.14-2.05-.56-4.16-1.13-6.67-1.13-3.3 0-14.61 3.44-38.71 11.14l-8.48 2.68c-.02-.5-.04-.97-.06-1.41 1.27-2.18 2.25-4.42 3.11-6.59l.02.07c24.2-7.25 38.46-24.75 43.1-30.5m-136.1-44.4c1.89-3 9.42-12.1 21.32-17.1 11-4.66 24.64-9.88 32.76-9.88 16.54 0 36.1 19.43 44.56 27.63 1.3 3.09 6.39 16.34 6.39 34.99 0 25-4.56 26.95-13.98 26.95-2.66 0-4.35.79-5 2.57 0 0-4.18 10.27-5.92 13.5-2.33 4.33-15.17 7.88-26.38 7.88-11.1 0-24.1-2.63-26.1-6.38-1.99-3.75-1.57-10-1.57-10-.31-1.97-3.45-3.98-5.42-4.25 0 0-12.82-2.57-13.33-2.75-6.7-2.63-11.71-8.41-11.71-30.77 0-16.88 3.36-29.2 4.34-32.36m-36.1 41.64l1.78 2.44c4.81 6.79 14.1 19.97 37.56 28.45 1.02.43 2.05.78 3.07 1.06 2.62.86 5.4 1.66 8.36 2.38l.22-.9h.04s.81.11 1.43.19c.36 2.03.96 4.54 2.2 7.15l-.05 1.65c-4.24-1.38-10.56-3.48-17.1-5.67-31.38-10.47-36.3-11.96-38.2-11.96-1.41 0-3.3.34-6.25.89-2.57.48-6.46 1.21-7.93 1.07-2.86-.26-9.85-2.88-9.85-6.54 0-1.41 2.24-3.09 4.22-4.58 2-1.51 4.09-3.07 5.28-5.27 1.19-2.19 1.38-4.69 1.55-6.91.19-2.48.37-4.15 1.16-4.57.84-.44 8.32-4.22 12.51 1.09"/><path d="m371.9 209.6c4.43 2.34 9.63 3.91 9.63 3.91s5.73-2.08 9.63-5.21c3.91-3.13 4.95-6.77 4.95-6.77s-5.99-7.29-15.36-7.29c-9.37 0-14.84 7-14.84 7s1.56 5.99 5.99 8.33"/><path d="m327.8 209.9c2.47 1.64 8.99 3.87 8.99 3.87s7.99-2.49 10.22-4.57c2.23-2.08 4.79-7.73 4.79-7.73s-3.9-6.92-14.62-6.92c-10.72 0-14.81 6.88-14.81 6.88s2.96 6.83 5.43 8.47"/><path d="m348.1 238s6.18.18 7.64-.41c1.46-.59 2.77-2 4.64-2s3.55 1.59 5.1 2.14c1.55.54 5.77 0 5.77 0s-.45-6.13-1.73-8.41c-1.27-2.27-9.69-8.18-9.69-8.18s-8.96 6-9.96 8.77c-1 2.73-1.77 8.09-1.77 8.09"/><path d="m381.9 562.9h-22c.4-.4 5.48-4.63 9.88-8.11 4.4-3.49 6.27-4.74 8-6.77 2.67-3.05 4-6.53 4-10.46 0-5.12-1.89-9.23-5.69-12.34-3.79-3.11-8.9-4.67-15.32-4.66-8.13 0-13.78 2.65-16.96 7.94-1.68 2.78-2.61 6.42-2.8 10.94h13.67c0-5.24 4.33-7.48 6.72-7.48 2.39 0 6.27 1.6 6.27 5.28 0 5.54-8.22 11-12.45 14.35-4.22 3.31-10.37 8.33-12.1 11.88-1.73 3.16-2.66 6.65-2.77 10.47h41.52v-11z"/></svg>