<?xml version="1.0" encoding="UTF-8" standalone="no"?>
<!-- Created with Inkscape (http://www.inkscape.org/) -->
<svg
   xmlns:dc="http://purl.org/dc/elements/1.1/"
   xmlns:cc="http://creativecommons.org/ns#"
   xmlns:rdf="http://www.w3.org/1999/02/22-rdf-syntax-ns#"
   xmlns:svg="http://www.w3.org/2000/svg"
   xmlns="http://www.w3.org/2000/svg"
   xmlns:sodipodi="http://sodipodi.sourceforge.net/DTD/sodipodi-0.dtd"
   xmlns:inkscape="http://www.inkscape.org/namespaces/inkscape"
   width="103.425"
   height="103.5"
   id="svg3298"
   sodipodi:version="0.32"
   inkscape:version="0.46"
   version="1.0"
   sodipodi:docname="ADR_2.svg"
   inkscape:output_extension="org.inkscape.output.svg.inkscape">
  <defs
     id="defs3300">
    <inkscape:perspective
       sodipodi:type="inkscape:persp3d"
       inkscape:vp_x="0 : 526.18109 : 1"
       inkscape:vp_y="0 : 1000 : 0"
       inkscape:vp_z="744.09448 : 526.18109 : 1"
       inkscape:persp3d-origin="372.04724 : 350.78739 : 1"
       id="perspective3306" />
    <inkscape:perspective
       id="perspective3061"
       inkscape:persp3d-origin="372.04724 : 350.78739 : 1"
       inkscape:vp_z="744.09448 : 526.18109 : 1"
       inkscape:vp_y="0 : 1000 : 0"
       inkscape:vp_x="0 : 526.18109 : 1"
       sodipodi:type="inkscape:persp3d" />
    <inkscape:perspective
       id="perspective3535"
       inkscape:persp3d-origin="372.04724 : 350.78739 : 1"
       inkscape:vp_z="744.09448 : 526.18109 : 1"
       inkscape:vp_y="0 : 1000 : 0"
       inkscape:vp_x="0 : 526.18109 : 1"
       sodipodi:type="inkscape:persp3d" />
  </defs>
  <sodipodi:namedview
     id="base"
     pagecolor="#ffffff"
     bordercolor="#666666"
     borderopacity="1.0"
     inkscape:pageopacity="0.0"
     inkscape:pageshadow="2"
     inkscape:zoom="4.48"
     inkscape:cx="21.170535"
     inkscape:cy="51.5625"
     inkscape:document-units="px"
     inkscape:current-layer="layer1"
     showgrid="false"
     inkscape:window-width="1280"
     inkscape:window-height="941"
     inkscape:window-x="-4"
     inkscape:window-y="-4" />
  <metadata
     id="metadata3303">
    <rdf:RDF>
      <cc:Work
         rdf:about="">
        <dc:format>image/svg+xml</dc:format>
        <dc:type
           rdf:resource="http://purl.org/dc/dcmitype/StillImage" />
      </cc:Work>
    </rdf:RDF>
  </metadata>
  <g
     inkscape:label="Calque 1"
     inkscape:groupmode="layer"
     id="layer1"
     transform="translate(-414.90713,-639.8979)">
    <g
       id="g377"
       transform="matrix(1.25,0,0,-1.25,414.90713,691.4979)">
      <path
         d="M 0,0 L 41.28,-41.52 L 82.74,0 L 41.28,41.28 L 0,0"
         style="fill:#da251d;fill-opacity:1;fill-rule:evenodd;stroke:none"
         id="path379" />
    </g>
    <path
       d="M 457.20713,686.0979 L 478.50713,686.0979 L 478.50713,683.6979 L 457.20713,683.6979 L 457.20713,686.0979 z"
       style="fill:#1f1a17;fill-opacity:1;fill-rule:nonzero;stroke:none"
       id="path405" />
    <g
       id="g407"
       transform="matrix(1.25,0,0,-1.25,471.00713,662.9979)">
      <path
         d="M 0,0 L 0.72,0.24 L 1.44,0.72 L 1.92,2.4 L 2.16,4.32 L 2.16,5.04 L 3.12,3.12 L 3.36,0.96 L 3.36,-1.2 L 2.64,-3.12 L 4.08,-2.4 L 4.8,-1.2 L 5.52,0.24 L 6,-1.44 L 6.48,-2.88 L 6,-4.8 L 5.28,-6 L 4.32,-7.44 L 6.24,-6.96 L 6.96,-6.24 L 7.44,-5.52 L 7.44,-5.04 L 7.2,-8.4 L 6.48,-11.04 C 4.498,-13.528 2.864,-15.142 -0.48,-14.88 L 0,-14.64 L 0.96,-13.92 L 2.4,-12.48 L 3.6,-10.32 L 1.2,-11.28 L 0.24,-11.28 L 0.96,-10.8 L 1.68,-9.84 L 2.16,-8.4 L 2.16,-6 L 1.68,-7.2 L 0.24,-8.16 L -0.72,-8.88 L -0.48,-6 L -1.2,-3.84 L -1.92,-2.4 L -3.12,-1.44 L -2.88,-2.64 L -3.12,-3.6 L -3.6,-4.8 L -4.08,-6.24 L -4.08,-7.44 L -3.84,-8.88 L -4.8,-8.4 L -5.52,-7.92 L -6,-7.2 L -6.72,-6 L -6.72,-8.16 L -6.48,-9.36 L -5.04,-11.28 L -6.24,-11.04 L -6.96,-11.04 L -7.68,-10.56 L -8.64,-9.84 L -7.68,-12.24 L -6.24,-13.92 L -4.56,-14.64 L -2.88,-14.88 L -4.8,-14.88 L -6.48,-14.64 L -9.12,-13.92 L -10.8,-12.48 L -12,-10.8 L -12.96,-6.96 L -13.68,-3.84 L -12,-5.76 L -11.04,-6.48 L -9.36,-6.72 L -10.32,-5.28 L -10.8,-3.84 L -10.8,-0.48 L -11.04,1.44 L -10.08,0.48 L -9.6,-0.24 L -8.88,-1.2 L -7.68,-1.92 C -9.443,2.241 -7.298,2.761 -8.16,5.52 C -4.749,4.159 -6.853,3.17 -5.04,0.24 C -2.382,5.145 -4.966,6.403 -3.12,10.8 L -2.4,8.4 L 0,3.12 L 0.24,1.68 L 0,0"
         style="fill:#1f1a17;fill-opacity:1;fill-rule:evenodd;stroke:none"
         id="path409" />
    </g>
    <g
       id="g411"
       transform="matrix(1.25,0,0,-1.25,421.50713,691.4979)">
      <path
         d="M 0,0 L 36.24,-36 L 72.18,0 L 36.24,36 L 0,0 z"
         style="fill:none;stroke:#1f1a17;stroke-width:0.71899998;stroke-linecap:round;stroke-linejoin:round;stroke-miterlimit:10;stroke-dasharray:none;stroke-opacity:1"
         id="path413" />
    </g>
    <g
       id="g435"
       transform="matrix(1.25,0,0,-1.25,463.50713,730.1979)">
      <path
         d="M 0,0 L 0,1.2 L 0.48,1.92 L 2.64,4.08 L 3.12,5.04 L 3.12,5.28 L 2.88,5.76 L 2.64,5.76 L 2.4,6 L 2.16,5.76 L 1.92,5.76 L 1.68,5.28 L 1.68,4.32 L 0,4.32 C 0.083,7.478 1.722,7.984 4.32,6.96 C 6.19,4.044 3.841,3.42 2.16,1.68 L 4.8,1.68 L 4.8,0 L 0,0"
         style="fill:#1f1a17;fill-opacity:1;fill-rule:evenodd;stroke:none"
         id="path437" />
    </g>
    <g
       id="g439"
       transform="matrix(1.25,0,0,-1.25,463.50713,730.1979)">
      <path
         d="M 0,0 L 0,1.2 L 0.48,1.92 L 2.64,4.08 L 3.12,5.04 L 3.12,5.28 L 2.88,5.76 L 2.64,5.76 L 2.4,6 L 2.16,5.76 L 1.92,5.76 L 1.68,5.28 L 1.68,4.32 L 0,4.32 C 0.083,7.478 1.722,7.984 4.32,6.96 C 6.19,4.044 3.841,3.42 2.16,1.68 L 4.8,1.68 L 4.8,0 L 0,0"
         style="fill:none;stroke:#1f1a17;stroke-width:0.06;stroke-linecap:round;stroke-linejoin:round;stroke-miterlimit:10;stroke-dasharray:none;stroke-opacity:1"
         id="path441" />
    </g>
  </g>
</svg>
