<?xml version="1.0" encoding="UTF-8" standalone="no"?>
<!-- Created with Inkscape (http://www.inkscape.org/) -->
<svg
   xmlns:dc="http://purl.org/dc/elements/1.1/"
   xmlns:cc="http://creativecommons.org/ns#"
   xmlns:rdf="http://www.w3.org/1999/02/22-rdf-syntax-ns#"
   xmlns:svg="http://www.w3.org/2000/svg"
   xmlns="http://www.w3.org/2000/svg"
   xmlns:sodipodi="http://sodipodi.sourceforge.net/DTD/sodipodi-0.dtd"
   xmlns:inkscape="http://www.inkscape.org/namespaces/inkscape"
   width="103.5"
   height="103.2"
   id="svg3298"
   sodipodi:version="0.32"
   inkscape:version="0.46"
   version="1.0"
   sodipodi:docname="ADR_2.2.svg"
   inkscape:output_extension="org.inkscape.output.svg.inkscape">
  <defs
     id="defs3300">
    <inkscape:perspective
       sodipodi:type="inkscape:persp3d"
       inkscape:vp_x="0 : 526.18109 : 1"
       inkscape:vp_y="0 : 1000 : 0"
       inkscape:vp_z="744.09448 : 526.18109 : 1"
       inkscape:persp3d-origin="372.04724 : 350.78739 : 1"
       id="perspective3306" />
    <inkscape:perspective
       id="perspective3061"
       inkscape:persp3d-origin="372.04724 : 350.78739 : 1"
       inkscape:vp_z="744.09448 : 526.18109 : 1"
       inkscape:vp_y="0 : 1000 : 0"
       inkscape:vp_x="0 : 526.18109 : 1"
       sodipodi:type="inkscape:persp3d" />
    <inkscape:perspective
       id="perspective3535"
       inkscape:persp3d-origin="372.04724 : 350.78739 : 1"
       inkscape:vp_z="744.09448 : 526.18109 : 1"
       inkscape:vp_y="0 : 1000 : 0"
       inkscape:vp_x="0 : 526.18109 : 1"
       sodipodi:type="inkscape:persp3d" />
  </defs>
  <sodipodi:namedview
     id="base"
     pagecolor="#ffffff"
     bordercolor="#666666"
     borderopacity="1.0"
     inkscape:pageopacity="0.0"
     inkscape:pageshadow="2"
     inkscape:zoom="4.48"
     inkscape:cx="21.170535"
     inkscape:cy="51.5625"
     inkscape:document-units="px"
     inkscape:current-layer="layer1"
     showgrid="false"
     inkscape:window-width="1280"
     inkscape:window-height="941"
     inkscape:window-x="-4"
     inkscape:window-y="-4" />
  <metadata
     id="metadata3303">
    <rdf:RDF>
      <cc:Work
         rdf:about="">
        <dc:format>image/svg+xml</dc:format>
        <dc:type
           rdf:resource="http://purl.org/dc/dcmitype/StillImage" />
      </cc:Work>
    </rdf:RDF>
  </metadata>
  <g
     inkscape:label="Calque 1"
     inkscape:groupmode="layer"
     id="layer1"
     transform="translate(-385.58749,-693.47469)">
    <g
       id="g373"
       transform="matrix(1.25,0,0,-1.25,385.58749,745.07469)">
      <path
         d="M 0,0 L 41.52,-41.28 L 82.8,0 L 41.52,41.28 L 0,0"
         style="fill:#4bb033;fill-opacity:1;fill-rule:evenodd;stroke:none"
         id="path375" />
    </g>
    <g
       id="g419"
       transform="matrix(1.25,0,0,-1.25,392.18749,745.07469)">
      <path
         d="M 0,0 L 36.24,-36 L 72.24,0 L 36.24,36 L 0,0 z"
         style="fill:none;stroke:#1f1a17;stroke-width:0.71899998;stroke-linecap:round;stroke-linejoin:round;stroke-miterlimit:10;stroke-dasharray:none;stroke-opacity:1"
         id="path421" />
    </g>
    <g
       id="g427"
       transform="matrix(1.25,0,0,-1.25,419.48749,724.97469)">
      <path
         d="M 0,0 L 4.8,1.2 L 9.36,2.64 L 14.16,3.84 L 18.72,5.04 L 20.4,4.56 L 21.84,3.84 L 26.16,4.8 L 26.64,4.8 L 26.88,4.08 L 26.88,3.36 L 26.64,3.12 L 24.48,2.4 L 22.56,1.92 L 21.6,0.72 L 20.88,-0.48 L 16.08,-1.68 L 11.28,-3.12 L 6.24,-4.32 L 1.44,-5.76 L 1.2,-5.76 L 0.72,-5.52 L 0.24,-5.52 C -0.904,-3.977 -1.872,-1.399 0,0"
         style="fill:#1f1a17;fill-opacity:1;fill-rule:evenodd;stroke:none"
         id="path429" />
    </g>
    <g
       id="g443"
       transform="matrix(1.25,0,0,-1.25,434.48749,784.07469)">
      <path
         d="M 0,0 C 0.387,3.25 2.005,2.662 3.36,4.8 L 3.12,5.28 L 3.12,5.76 L 2.88,5.76 L 2.4,6 C 1.462,4.982 1.699,5.727 1.68,4.32 L 0,4.32 L 0,4.8 L 0.48,6 L 0.96,6.72 L 1.68,7.2 L 2.64,7.44 L 3.6,7.2 L 4.32,6.72 L 4.8,6 L 5.04,5.04 L 5.04,4.32 L 4.56,3.6 L 3.84,2.88 L 2.88,2.4 L 2.4,1.68 L 5.04,1.68 L 5.04,0 L 0,0"
         style="fill:#1f1a17;fill-opacity:1;fill-rule:evenodd;stroke:none"
         id="path445" />
    </g>
    <g
       id="g447"
       transform="matrix(1.25,0,0,-1.25,434.48749,784.07469)">
      <path
         d="M 0,0 C 0.387,3.25 2.005,2.662 3.36,4.8 L 3.12,5.28 L 3.12,5.76 L 2.88,5.76 L 2.4,6 C 1.462,4.982 1.699,5.727 1.68,4.32 L 0,4.32 L 0,4.8 L 0.48,6 L 0.96,6.72 L 1.68,7.2 L 2.64,7.44 L 3.6,7.2 L 4.32,6.72 L 4.8,6 L 5.04,5.04 L 5.04,4.32 L 4.56,3.6 L 3.84,2.88 L 2.88,2.4 L 2.4,1.68 L 5.04,1.68 L 5.04,0 L 0,0"
         style="fill:none;stroke:#1f1a17;stroke-width:0.06;stroke-linecap:round;stroke-linejoin:round;stroke-miterlimit:10;stroke-dasharray:none;stroke-opacity:1"
         id="path449" />
    </g>
  </g>
</svg>
