<?xml version="1.0" encoding="UTF-8" standalone="no"?>
<!-- Created with Inkscape (http://www.inkscape.org/) -->
<svg
   xmlns:dc="http://purl.org/dc/elements/1.1/"
   xmlns:cc="http://creativecommons.org/ns#"
   xmlns:rdf="http://www.w3.org/1999/02/22-rdf-syntax-ns#"
   xmlns:svg="http://www.w3.org/2000/svg"
   xmlns="http://www.w3.org/2000/svg"
   xmlns:sodipodi="http://sodipodi.sourceforge.net/DTD/sodipodi-0.dtd"
   xmlns:inkscape="http://www.inkscape.org/namespaces/inkscape"
   id="svg2"
   sodipodi:version="0.32"
   inkscape:version="0.46dev+devel"
   width="430.00003"
   height="430.00003"
   version="1.0"
   sodipodi:docbase="W:\#WB+\8+\norm+"
   sodipodi:docname="Dangclass6_1.svg"
   inkscape:output_extension="org.inkscape.output.svg.inkscape">
  <metadata
     id="metadata7">
    <rdf:RDF>
      <cc:Work
         rdf:about="">
        <dc:format>image/svg+xml</dc:format>
        <dc:type
           rdf:resource="http://purl.org/dc/dcmitype/StillImage" />
        <dc:subject>
          <rdf:Bag>
            <rdf:li>ADR</rdf:li>
            <rdf:li>Toxic Substance</rdf:li>
            <rdf:li>Poison</rdf:li>
            <rdf:li>Hazard</rdf:li>
            <rdf:li>Giftiger Stoff</rdf:li>
            <rdf:li>Gefahrgutklasse</rdf:li>
          </rdf:Bag>
        </dc:subject>
        <dc:coverage>ADR Class 6.1</dc:coverage>
        <dc:description>de: ADR Gefahrgutklasse 6.1 - Giftige Stoffe
en: ADR labels for dangerous goods, Hazard class 6.1 - Toxic substances</dc:description>
        <dc:contributor>
          <cc:Agent>
            <dc:title>Commons:User:Kaverin
Inkscape: Trace Bitmap; Text &gt;unflow !; Text &gt;path &gt;object to path</dc:title>
          </cc:Agent>
        </dc:contributor>
        <dc:rights>
          <cc:Agent>
            <dc:title>GNU Free Documentation License, Version 1.2 or any later</dc:title>
          </cc:Agent>
        </dc:rights>
        <cc:license
           rdf:resource="http://creativecommons.org/licenses/GPL/2.0/" />
        <dc:creator>
          <cc:Agent>
            <dc:title>Commons:User:W!B:</dc:title>
          </cc:Agent>
        </dc:creator>
        <dc:date>2007-01-14</dc:date>
        <dc:title>Dangclass6.1</dc:title>
        <dc:identifier>http://commons.wikimedia.org/wiki/Image:Dangclass6 1.svg</dc:identifier>
      </cc:Work>
      <cc:License
         rdf:about="http://creativecommons.org/licenses/GPL/2.0/">
        <cc:permits
           rdf:resource="http://web.resource.org/cc/Reproduction" />
        <cc:permits
           rdf:resource="http://web.resource.org/cc/Distribution" />
        <cc:requires
           rdf:resource="http://web.resource.org/cc/Notice" />
        <cc:permits
           rdf:resource="http://web.resource.org/cc/DerivativeWorks" />
        <cc:requires
           rdf:resource="http://web.resource.org/cc/ShareAlike" />
        <cc:requires
           rdf:resource="http://web.resource.org/cc/SourceCode" />
      </cc:License>
    </rdf:RDF>
  </metadata>
  <defs
     id="defs5" />
  <sodipodi:namedview
     inkscape:window-height="673"
     inkscape:window-width="922"
     inkscape:pageshadow="2"
     inkscape:pageopacity="0.0"
     guidetolerance="10.0"
     gridtolerance="10.0"
     objecttolerance="10.0"
     borderopacity="1.0"
     bordercolor="#666666"
     pagecolor="#ffffff"
     id="base"
     height="200px"
     width="200px"
     inkscape:zoom="1.0674581"
     inkscape:cx="216.40193"
     inkscape:cy="216.40193"
     inkscape:window-x="132"
     inkscape:window-y="144"
     inkscape:current-layer="g2801"
     showgrid="false"
     inkscape:showpageshadow="false" />
  <g
     id="g2801"
     transform="translate(567.01078,88.872218)">
    <g
       id="g3003"
       transform="matrix(0.9935067,0,0,0.9935067,-3.681776,2.2150397)">
      <path
         style="fill:#ffffff;fill-opacity:1;fill-rule:evenodd;stroke:#000000;stroke-width:1.00653589;stroke-miterlimit:4;stroke-dasharray:none;stroke-dashoffset:0;stroke-opacity:1"
         d="M -134.70366,124.72261 L -350.60558,340.62454 L -566.50751,124.72261 L -350.60558,-91.179312 L -134.70366,124.72261 z"
         id="rect1909" />
      <path
         id="path2772"
         d="M -134.70366,124.72261 L -350.60558,340.62454 L -566.50751,124.72261 L -350.60558,-91.179312 L -134.70366,124.72261 z"
         style="fill:none;fill-opacity:1;fill-rule:evenodd;stroke:#000000;stroke-width:0.50326788;stroke-miterlimit:4;stroke-dasharray:none;stroke-dashoffset:0;stroke-opacity:1" />
      <path
         style="fill:#000000;fill-opacity:1;stroke:#00000f;stroke-width:1.00653577;stroke-opacity:0.94117647"
         d="M -398.18654,87.727949 C -399.17938,86.733958 -399.71734,84.825151 -399.55063,82.887855 C -399.36979,80.786458 -400.03491,78.722326 -401.48938,76.871145 C -406.08027,71.028046 -403.015,66.299486 -394.63638,66.299486 C -391.44602,66.299486 -387.11042,65.035308 -380.58258,62.201635 C -375.39051,59.947807 -370.98977,57.951891 -370.80316,57.76624 C -370.61655,57.580588 -375.80126,54.840357 -382.32473,51.676816 C -393.90456,46.061217 -394.37354,45.928738 -402.11754,46.085686 C -408.26323,46.210231 -410.46301,45.871761 -411.88582,44.582659 C -414.25971,42.431827 -414.21049,40.109697 -411.72395,36.944927 C -410.11244,34.893867 -409.84759,33.511607 -410.3554,29.802437 C -411.5693,20.935888 -406.17928,19.431578 -399.148,26.674597 C -394.51698,31.445077 -380.17608,41.27436 -374.19939,43.774469 C -369.55365,45.717817 -369.471,43.756141 -374.10541,41.543598 C -377.53601,39.905757 -380.66028,34.569667 -380.66028,30.348197 C -380.66028,29.353987 -382.11441,25.865047 -383.89169,22.594998 C -386.72973,17.373218 -387.1197,15.733678 -387.09516,9.126718 C -387.06331,0.55023756 -385.06372,-4.3568324 -379.49573,-9.5226029 C -372.05891,-16.422183 -360.44904,-20.976893 -350.38515,-20.943063 C -336.59817,-20.896703 -320.21597,-11.891473 -315.82518,-1.9455624 C -312.56448,5.4405276 -313.8609,18.184068 -318.58423,25.175208 C -319.51602,26.554377 -320.58538,29.713917 -320.9606,32.196437 C -321.77364,37.575827 -322.9747,39.353907 -327.3104,41.596838 C -329.10124,42.523281 -330.56648,43.721059 -330.56648,44.258562 C -330.56648,48.840224 -309.59785,35.958477 -301.74404,26.551957 C -299.04066,23.314128 -297.357,22.166128 -295.31178,22.166128 C -291.22696,22.166128 -289.23412,25.669307 -290.56788,30.505357 C -291.45545,33.723607 -291.31125,34.619357 -289.54334,36.869487 C -286.98986,40.119427 -286.93414,42.419009 -289.35569,44.613006 C -290.82724,45.946267 -292.80138,46.246478 -298.62304,46.022267 C -305.66995,45.750846 -306.60217,45.993929 -318.29352,51.151311 C -325.04365,54.128982 -330.56648,56.877968 -330.56648,57.260187 C -330.56648,57.642385 -326.17076,59.833334 -320.7982,62.128964 C -314.14125,64.973402 -309.58516,66.302297 -306.49394,66.301151 C -298.1942,66.298105 -295.14679,71.052277 -299.71864,76.871145 C -301.1731,78.722326 -301.83821,80.786458 -301.65737,82.887855 C -301.32298,86.7736 -303.61154,89.369205 -307.37199,89.369205 C -311.23422,89.369205 -314.21451,86.929013 -316.95134,81.52589 C -318.25921,78.943859 -320.16698,76.094017 -321.19086,75.192864 C -323.84125,72.860163 -330.3671,69.709743 -335.30762,68.377864 C -338.98857,67.385559 -340.05366,67.501956 -343.52754,69.276231 C -348.57384,71.853614 -353.11669,71.863858 -357.87881,69.308588 C -362.75038,66.694567 -364.98615,66.788398 -371.6434,69.886273 C -378.53301,73.092288 -381.2219,75.575408 -384.24755,81.52589 C -385.56043,84.107897 -387.64491,86.928926 -388.87974,87.794827 C -391.79073,89.836133 -396.1118,89.80505 -398.18654,87.727949 z M -388.96299,85.10632 C -387.82705,83.865074 -385.93285,80.925162 -384.75363,78.573181 C -382.72372,74.52446 -378.57278,70.851732 -371.86084,67.165734 C -369.43331,65.832601 -368.96611,65.032151 -369.37268,62.902849 C -369.64798,61.460994 -370.26334,60.281306 -370.74015,60.281306 C -371.21695,60.281306 -375.51046,62.086749 -380.28128,64.293434 C -386.26651,67.061808 -390.33009,68.305541 -393.3897,68.305541 C -400.97129,68.305541 -403.66739,71.281376 -400.2588,75.887334 C -398.83491,77.81138 -398.7986,77.810687 -397.17881,75.828283 C -395.57406,73.864271 -395.55226,73.874796 -396.13911,76.329795 C -397.68718,82.805957 -397.88899,84.39983 -397.34172,85.827637 C -396.44766,88.160208 -391.35665,87.721919 -388.96299,85.10632 z M -304.0853,83.351025 C -304.12299,81.42019 -304.49184,78.486311 -304.90497,76.831309 C -305.62878,73.931688 -305.5967,73.895201 -304.0231,75.828283 C -302.40934,77.810687 -302.37309,77.81138 -300.94921,75.887334 C -297.58406,71.340082 -300.23492,68.305541 -307.57239,68.305541 C -310.2964,68.305541 -314.9604,66.88303 -320.9131,64.236609 L -330.06555,60.167677 L -332.3866,62.865779 C -334.99767,65.901014 -334.62919,66.562088 -329.39325,68.236027 C -323.49341,70.122245 -317.75059,74.904605 -315.41697,79.874843 C -312.92933,85.173219 -310.02983,87.543074 -306.52147,87.145487 C -304.36524,86.901107 -304.02631,86.373245 -304.0853,83.351025 z M -342.11041,66.309949 C -333.93116,62.48142 -332.57024,60.51648 -332.57024,52.535389 C -332.57024,49.072306 -332.75879,46.23887 -332.98924,46.23887 C -335.22595,46.23887 -336.57775,47.902217 -336.57775,50.654443 C -336.57775,53.578426 -337.13514,54.138603 -343.08417,57.193374 C -350.54021,61.021968 -352.78339,60.940243 -359.99879,56.576957 C -363.98569,54.166009 -364.63027,53.321509 -364.63027,50.509061 C -364.63027,48.712112 -364.81882,47.241898 -365.04926,47.241898 C -365.27971,47.241898 -366.1814,46.967925 -367.05301,46.633066 C -368.39858,46.116141 -368.63777,47.014614 -368.63777,52.585946 C -368.63777,61.84639 -367.61682,63.951159 -362.44917,65.344252 C -360.09913,65.97779 -357.27396,67.128945 -356.17101,67.902355 C -353.10726,70.050764 -349.14319,69.601839 -342.11041,66.309949 z M -372.20147,51.317227 C -371.23553,50.248664 -370.71843,48.931829 -371.05233,48.390934 C -371.38622,47.850038 -375.0682,45.566707 -379.23449,43.316856 C -387.93858,38.616507 -400.60719,29.308267 -402.45956,26.252287 C -403.99811,23.714028 -407.30203,23.539158 -408.57924,25.928407 C -409.71977,28.061967 -407.54416,34.360707 -406.34028,32.410537 C -405.92703,31.741117 -404.86938,31.193407 -403.98995,31.193407 C -402.59049,31.193407 -402.61436,31.440507 -404.18121,33.173847 C -405.16583,34.263097 -406.74147,35.398997 -407.68264,35.698057 C -408.6238,35.997127 -409.98484,37.347327 -410.70715,38.698557 C -412.9732,42.937599 -410.78976,44.252899 -401.83174,44.045134 C -394.60705,43.877551 -393.66099,44.124029 -384.66778,48.51682 C -379.43298,51.073776 -374.8817,53.187063 -374.55384,53.212979 C -374.22596,53.238873 -373.1674,52.385812 -372.20147,51.317227 z M -342.21564,51.129717 C -340.49617,50.345371 -339.58336,49.137324 -339.58336,47.646077 C -339.58336,45.928911 -338.29929,44.663823 -334.40176,42.541156 C -326.41639,38.192177 -325.31452,36.063737 -324.24196,22.915978 C -323.73576,16.711068 -323.3078,9.466078 -323.29091,6.816018 C -323.23422,-2.0879424 -321.63108,3.5239776 -321.33832,13.651298 L -321.04866,23.670668 L -318.81645,19.157028 C -314.13309,9.687068 -317.10025,-3.5747124 -325.14577,-9.1318924 C -327.30062,-10.620283 -331.76873,-13.101543 -335.07492,-14.645833 C -340.3323,-17.101483 -342.27983,-17.453613 -350.60402,-17.453613 C -358.92818,-17.453613 -360.87571,-17.101483 -366.13308,-14.645833 C -380.44389,-7.9614324 -384.11831,-3.1061224 -384.12373,9.126718 C -384.12624,14.778248 -383.6336,17.522688 -382.1432,20.160058 L -380.15934,23.670668 L -379.8697,13.651298 C -379.56866,3.2375176 -377.71291,-2.4329824 -377.58474,6.669298 C -377.54629,9.400038 -377.18787,16.650158 -376.78825,22.780648 C -375.9305,35.939157 -374.9643,37.890217 -367.10721,42.329589 C -362.84296,44.738957 -361.62464,45.963278 -361.62464,47.839165 C -361.62464,49.165662 -361.51193,50.257786 -361.37417,50.266085 C -361.23642,50.274408 -359.32033,50.955456 -357.1162,51.779531 C -352.81388,53.388104 -346.56958,53.115798 -342.21564,51.129717 z M -356.139,42.148907 C -356.82486,39.985477 -355.64187,37.453007 -352.70056,34.788087 C -350.6432,32.924067 -350.5648,32.924067 -348.50745,34.788087 C -345.56613,37.453007 -344.38316,39.985477 -345.06902,42.148907 C -345.53558,43.620699 -346.67293,44.001343 -350.60402,44.001343 C -354.53507,44.001343 -355.67242,43.620699 -356.139,42.148907 z M -371.05765,28.278137 C -372.15561,27.063497 -372.66913,25.154048 -372.46527,23.044088 C -372.18241,20.116328 -371.69429,19.616408 -368.35047,18.829778 C -364.4836,17.920108 -355.59525,18.717698 -355.63567,19.970748 C -355.64792,20.350698 -356.53958,21.789978 -357.61714,23.169158 C -358.6947,24.548328 -359.58635,26.225057 -359.59861,26.895227 C -359.66033,30.271287 -368.31212,31.315407 -371.05765,28.278137 z M -339.83383,29.106987 C -340.79813,28.544697 -341.59714,27.542857 -341.60941,26.880677 C -341.62165,26.218507 -342.51332,24.548328 -343.59087,23.169158 C -344.66843,21.789978 -345.56009,20.350698 -345.57235,19.970748 C -345.61277,18.717698 -336.72441,17.920108 -332.85754,18.829778 C -329.51372,19.616408 -329.02561,20.116328 -328.74274,23.044088 C -328.53888,25.154048 -329.0524,27.063497 -330.15035,28.278137 C -332.03114,30.358767 -336.96318,30.780927 -339.83383,29.106987 z M -317.37391,48.534134 C -307.64254,44.091327 -306.56437,43.820618 -299.37626,44.015327 C -293.72928,44.168319 -291.41557,43.843033 -290.52709,42.771227 C -288.82039,40.712391 -290.15932,37.435067 -293.3906,35.762167 C -297.0306,33.877677 -299.34319,31.193407 -297.32671,31.193407 C -296.5429,31.193407 -295.4166,31.678947 -294.82382,32.272407 C -293.21326,33.884837 -291.08524,27.377617 -292.61832,25.528247 C -294.38357,23.398778 -297.30293,23.934648 -299.12793,26.723147 C -302.03302,31.161977 -313.75541,40.186797 -321.54962,43.985088 C -325.68235,45.999072 -329.13974,47.669531 -329.2327,47.697199 C -329.32567,47.724886 -329.71268,48.987856 -330.09273,50.503808 C -331.05828,54.355314 -329.64493,54.136439 -317.37391,48.534134 z"
         id="path1891"
         sodipodi:nodetypes="cssssssssssssssssssssssssssssssssssssssssssssccssssssssssccsssscccsssccsssssssssssccssssssssssssccsssscccssssscccssssssccssssccsssssccssssssccssssssssssc" />
      <path
         id="path2799"
         d="M -161.78654,124.72266 L -350.60554,313.54168 L -539.42464,124.72266 L -350.60554,-64.09645 L -161.78654,124.72266 z"
         style="fill:none;fill-opacity:1;fill-rule:evenodd;stroke:#000000;stroke-width:2.5163393;stroke-miterlimit:4;stroke-dasharray:none;stroke-dashoffset:0;stroke-opacity:1" />
      <path
         id="path2949"
         d="M -350.375,244.1875 C -354.76686,244.18754 -358.4289,245.86075 -361.1875,249.15625 C -363.99879,252.51472 -365.31253,257.81881 -365.3125,265.03125 C -365.31251,272.06558 -364.04882,277.2369 -361.34375,280.5 C -358.6956,283.69447 -355.21021,285.34374 -351.09375,285.34375 C -347.27233,285.34375 -344.06236,284.07464 -341.59375,281.53125 C -339.11769,278.98014 -337.87504,275.55938 -337.875,271.4375 C -337.87503,267.544 -339.05411,264.26151 -341.40625,261.75 C -343.74312,259.2549 -346.6377,257.96879 -349.9375,257.96875 C -352.20763,257.96877 -354.15766,258.89045 -355.875,260.28125 C -355.52168,256.99848 -354.95131,254.57794 -354.21875,253.625 C -353.23876,252.35022 -352.16023,251.81253 -350.8125,251.8125 C -349.77803,251.81253 -349.03534,252.08692 -348.4375,252.65625 C -347.8638,253.20267 -347.44501,254.12447 -347.28125,255.5 L -347.1875,256.21875 L -346.46875,256.15625 L -339.25,255.34375 L -338.46875,255.25 L -338.59375,254.46875 C -339.14508,251.19772 -340.47493,248.62635 -342.5625,246.84375 C -344.6403,245.06962 -347.28456,244.18755 -350.375,244.1875 z M -351.09375,264.9375 C -349.8076,264.93752 -348.83914,265.40393 -347.96875,266.4375 C -347.15,267.40979 -346.65628,269.07147 -346.65625,271.5 C -346.65627,273.86228 -347.10752,275.4488 -347.84375,276.3125 C -348.64239,277.24934 -349.53622,277.6875 -350.71875,277.6875 C -351.91989,277.68751 -352.95805,277.16397 -353.96875,275.96875 C -354.91562,274.84907 -355.44767,273.20154 -355.46875,270.96875 L -355.46875,270.84375 C -355.46876,268.7659 -355.01671,267.31529 -354.1875,266.375 C -353.31679,265.38768 -352.32885,264.93753 -351.09375,264.9375 z"
         style="font-size:54.27472687px;font-style:normal;font-weight:normal;fill:#000000;fill-opacity:1;stroke:none;stroke-width:1.5;stroke-linecap:butt;stroke-linejoin:miter;stroke-miterlimit:4;stroke-dasharray:none;stroke-opacity:1;font-family:Lello" />
      <path
         id="path2997"
         d="M -376.57434,141.25 C -378.45553,141.25002 -380.13777,141.63221 -381.60559,142.375 C -382.72116,142.93173 -383.74534,143.77134 -384.66809,144.90625 C -385.5894,146.03943 -386.32228,147.32203 -386.85559,148.75 C -387.57468,150.70009 -387.91809,153.08036 -387.91809,155.875 C -387.91809,160.25697 -386.8923,163.7885 -384.82434,166.34375 C -382.75955,168.89507 -379.95117,170.1875 -376.51184,170.1875 C -373.11185,170.1875 -370.32532,168.87493 -368.26184,166.3125 C -366.1933,163.7437 -365.16813,160.22297 -365.16809,155.78125 C -365.16812,151.30293 -366.20838,147.66911 -368.29309,145.09375 C -370.37173,142.52598 -373.16418,141.25002 -376.57434,141.25 z M -345.51184,141.25 C -347.28731,141.25002 -348.81112,141.58964 -350.10559,142.25 C -351.39835,142.90953 -352.40407,143.89995 -353.10559,145.1875 C -353.79912,146.46042 -354.16809,147.83915 -354.16809,149.3125 C -354.16808,151.58241 -353.41201,153.55792 -351.94934,155.125 C -350.86576,156.28541 -349.10883,157.17373 -346.63684,157.90625 C -344.74749,158.46782 -343.53062,158.89203 -343.04309,159.09375 C -342.30845,159.40576 -341.83346,159.73654 -341.60559,160.0625 C -341.36201,160.41099 -341.23059,160.81455 -341.23059,161.34375 C -341.23059,162.17153 -341.50326,162.86808 -342.16809,163.53125 C -342.79647,164.15807 -343.80047,164.50001 -345.19934,164.5 C -346.50407,164.50001 -347.48296,164.10748 -348.19934,163.375 C -348.9096,162.6488 -349.41414,161.5056 -349.66809,159.8125 L -349.76184,159.3125 L -350.13684,159.34375 L -354.57434,159.875 L -355.04309,159.9375 L -354.98059,160.46875 C -354.67424,163.57513 -353.72854,166.01438 -352.10559,167.6875 C -350.47429,169.36923 -348.14595,170.1875 -345.23059,170.1875 C -343.23331,170.1875 -341.55266,169.84803 -340.16809,169.15625 C -338.78271,168.46406 -337.6842,167.37656 -336.91809,165.9375 C -336.15931,164.51213 -335.76187,162.98631 -335.76184,161.34375 C -335.76186,159.56672 -336.07912,158.00799 -336.73059,156.75 C -337.37207,155.51133 -338.2627,154.52011 -339.38684,153.8125 C -340.51003,153.10555 -342.18813,152.47316 -344.41809,151.84375 C -346.60654,151.22609 -348.00443,150.57128 -348.41809,150.15625 C -348.78757,149.78487 -348.91809,149.41945 -348.91809,148.9375 C -348.91809,148.3905 -348.7695,148.0184 -348.38684,147.6875 C -347.74344,147.12912 -346.80057,146.84379 -345.54309,146.84375 C -344.32427,146.8438 -343.47264,147.12961 -342.94934,147.625 C -342.42484,148.12158 -342.06948,149.01399 -341.88684,150.3125 L -341.79309,150.75 L -341.38684,150.75 L -336.85559,150.5 L -336.38684,150.46875 L -336.41809,149.9375 C -336.49328,147.34465 -337.3045,145.16964 -338.82434,143.59375 C -340.3647,141.99668 -342.62061,141.25002 -345.51184,141.25 z M -322.41809,141.25 C -324.29926,141.25002 -325.98153,141.63221 -327.44934,142.375 C -328.56489,142.93173 -329.5891,143.77134 -330.51184,144.90625 C -331.43317,146.03943 -332.16603,147.32203 -332.69934,148.75 C -333.41841,150.70009 -333.76184,153.08036 -333.76184,155.875 C -333.76184,160.25696 -332.73605,163.7885 -330.66809,166.34375 C -328.60331,168.89507 -325.79492,170.1875 -322.35559,170.1875 C -318.95558,170.1875 -316.16905,168.87495 -314.10559,166.3125 C -312.03704,163.74369 -311.01188,160.22297 -311.01184,155.78125 C -311.01188,151.30293 -312.0521,147.66911 -314.13684,145.09375 C -316.2155,142.52598 -319.0079,141.25002 -322.41809,141.25 z M -408.01184,141.71875 L -408.01184,142.28125 L -408.01184,169.15625 L -408.01184,169.71875 L -407.54309,169.71875 L -403.01184,169.71875 L -402.54309,169.71875 L -402.54309,169.15625 L -402.54309,159.5625 L -400.01184,159.5625 C -397.93902,159.5625 -396.36939,159.45721 -395.23059,159.1875 C -394.36669,158.96242 -393.51359,158.48932 -392.69934,157.8125 C -391.86201,157.11649 -391.16714,156.15891 -390.63684,154.96875 C -390.0918,153.74542 -389.85563,152.24883 -389.85559,150.53125 C -389.85561,148.30203 -390.3209,146.43104 -391.26184,144.96875 C -392.18488,143.53443 -393.34456,142.55897 -394.73059,142.125 C -395.69105,141.81701 -397.48642,141.71877 -400.26184,141.71875 L -407.54309,141.71875 L -408.01184,141.71875 z M -362.69934,141.71875 L -362.69934,142.28125 L -362.69934,169.15625 L -362.69934,169.71875 L -362.23059,169.71875 L -357.69934,169.71875 L -357.23059,169.71875 L -357.23059,169.15625 L -357.23059,142.28125 L -357.23059,141.71875 L -357.69934,141.71875 L -362.23059,141.71875 L -362.69934,141.71875 z M -308.76184,141.71875 L -308.76184,142.28125 L -308.76184,169.15625 L -308.76184,169.71875 L -308.29309,169.71875 L -304.85559,169.71875 L -304.38684,169.71875 L -304.38684,169.15625 L -304.38684,153.875 L -297.82434,169.40625 L -297.69934,169.71875 L -297.41809,169.71875 L -293.66809,169.71875 L -293.19934,169.71875 L -293.19934,169.15625 L -293.19934,142.28125 L -293.19934,141.71875 L -293.66809,141.71875 L -297.13684,141.71875 L -297.57434,141.71875 L -297.57434,142.28125 L -297.57434,157.90625 L -304.26184,142.03125 L -304.41809,141.71875 L -304.69934,141.71875 L -308.29309,141.71875 L -308.76184,141.71875 z M -376.54309,147 C -374.77369,147.00002 -373.40299,147.68882 -372.35559,149.09375 C -371.32718,150.47332 -370.79309,152.62226 -370.79309,155.625 C -370.79312,158.66325 -371.3573,160.85677 -372.41809,162.28125 C -373.50109,163.73553 -374.84161,164.43751 -376.54309,164.4375 C -378.24375,164.43752 -379.569,163.71807 -380.66809,162.25 C -381.74705,160.80886 -382.32433,158.64932 -382.32434,155.6875 C -382.32434,152.67328 -381.74383,150.49283 -380.69934,149.09375 C -379.6356,147.66891 -378.31128,147.00001 -376.54309,147 z M -322.35559,147 C -320.58616,147.00002 -319.27798,147.68882 -318.23059,149.09375 C -317.20217,150.47332 -316.60559,152.62226 -316.60559,155.625 C -316.60561,158.66325 -317.20104,160.85677 -318.26184,162.28125 C -319.34485,163.73553 -320.65409,164.43751 -322.35559,164.4375 C -324.05624,164.43752 -325.41276,163.71807 -326.51184,162.25 C -327.59081,160.80886 -328.16809,158.64932 -328.16809,155.6875 C -328.16811,152.67328 -327.61883,150.49283 -326.57434,149.09375 C -325.51058,147.66891 -324.12376,147.00001 -322.35559,147 z M -402.54309,147.375 L -400.79309,147.375 C -399.16527,147.37501 -398.09686,147.42751 -397.63684,147.53125 L -397.60559,147.53125 C -396.95659,147.67135 -396.45888,148.01262 -396.04309,148.5625 C -395.64033,149.09516 -395.44937,149.72219 -395.44934,150.59375 C -395.44937,151.295 -395.59719,151.86858 -395.88684,152.375 C -396.1779,152.8839 -396.54568,153.25367 -397.07434,153.5 C -397.53555,153.71493 -398.74106,153.87501 -400.51184,153.875 L -402.54309,153.875 L -402.54309,147.375 z"
         style="font-size:34.37115097px;font-style:normal;font-weight:normal;fill:#000000;fill-opacity:1;stroke:none;stroke-width:1px;stroke-linecap:butt;stroke-linejoin:miter;stroke-opacity:1;font-family:Lello" />
    </g>
  </g>
</svg>
