<?xml version="1.0" encoding="UTF-8" standalone="no"?>
<!-- Created with Inkscape (http://www.inkscape.org/) -->
<svg
   xmlns:dc="http://purl.org/dc/elements/1.1/"
   xmlns:cc="http://creativecommons.org/ns#"
   xmlns:rdf="http://www.w3.org/1999/02/22-rdf-syntax-ns#"
   xmlns:svg="http://www.w3.org/2000/svg"
   xmlns="http://www.w3.org/2000/svg"
   xmlns:sodipodi="http://sodipodi.sourceforge.net/DTD/sodipodi-0.dtd"
   xmlns:inkscape="http://www.inkscape.org/namespaces/inkscape"
   width="103.425"
   height="103.125"
   id="svg2950"
   sodipodi:version="0.32"
   inkscape:version="0.46"
   version="1.0"
   sodipodi:docname="ADR_1.svg"
   inkscape:output_extension="org.inkscape.output.svg.inkscape">
  <defs
     id="defs2952">
    <inkscape:perspective
       sodipodi:type="inkscape:persp3d"
       inkscape:vp_x="0 : 526.18109 : 1"
       inkscape:vp_y="0 : 1000 : 0"
       inkscape:vp_z="744.09448 : 526.18109 : 1"
       inkscape:persp3d-origin="372.04724 : 350.78739 : 1"
       id="perspective2958" />
  </defs>
  <sodipodi:namedview
     id="base"
     pagecolor="#ffffff"
     bordercolor="#666666"
     borderopacity="1.0"
     inkscape:pageopacity="0.0"
     inkscape:pageshadow="2"
     inkscape:zoom="4.5187879"
     inkscape:cx="51.712502"
     inkscape:cy="33.858637"
     inkscape:document-units="px"
     inkscape:current-layer="layer1"
     showgrid="false"
     inkscape:window-width="1024"
     inkscape:window-height="687"
     inkscape:window-x="-4"
     inkscape:window-y="-4" />
  <metadata
     id="metadata2955">
    <rdf:RDF>
      <cc:Work
         rdf:about="">
        <dc:format>image/svg+xml</dc:format>
        <dc:type
           rdf:resource="http://purl.org/dc/dcmitype/StillImage" />
      </cc:Work>
    </rdf:RDF>
  </metadata>
  <g
     inkscape:label="Calque 1"
     inkscape:groupmode="layer"
     id="layer1"
     transform="translate(-316.85893,-206.51397)">
    <g
       id="g107"
       transform="matrix(1.25,0,0,-1.25,316.85893,258.11397)">
      <path
         d="M 0,0 L 41.46,-41.22 L 82.74,0 L 41.46,41.28 L 0,0"
         style="fill:#e77817;fill-opacity:1;fill-rule:evenodd;stroke:none"
         id="path109" />
    </g>
    <g
       id="g111"
       transform="matrix(1.25,0,0,-1.25,376.48393,225.71397)">
      <path
         d="M 0,0 L -13.14,-14.4 L 0.48,-0.48 L 0,0"
         style="fill:#1f1a17;fill-opacity:1;fill-rule:evenodd;stroke:none"
         id="path113" />
    </g>
    <g
       id="g115"
       transform="matrix(1.25,0,0,-1.25,388.18393,236.81397)">
      <path
         d="M 0,0 L -21.54,-5.52 L 0.24,-0.48 L 0,0"
         style="fill:#1f1a17;fill-opacity:1;fill-rule:evenodd;stroke:none"
         id="path117" />
    </g>
    <g
       id="g119"
       transform="matrix(1.25,0,0,-1.25,387.88393,246.41397)">
      <path
         d="M 0,0 L -20.16,0.72 L 0.48,-0.24 L 0,0"
         style="fill:#1f1a17;fill-opacity:1;fill-rule:evenodd;stroke:none"
         id="path121" />
    </g>
    <g
       id="g123"
       transform="matrix(1.25,0,0,-1.25,377.08393,232.31397)">
      <path
         d="M 0,0 L -12.18,-8.64 L 0,-0.96 L 0,0"
         style="fill:#1f1a17;fill-opacity:1;fill-rule:evenodd;stroke:none"
         id="path125" />
    </g>
    <g
       id="g127"
       transform="matrix(1.25,0,0,-1.25,370.18393,251.21397)">
      <path
         d="M 0,0 L -6.42,3.6 L 0.24,-0.48 L 0,0"
         style="fill:#1f1a17;fill-opacity:1;fill-rule:evenodd;stroke:none"
         id="path129" />
    </g>
    <g
       id="g131"
       transform="matrix(1.25,0,0,-1.25,380.68393,232.91397)">
      <path
         d="M 0,0 L -0.24,-0.96 L 0.72,-1.44 L 1.44,-0.72 L 2.88,-1.68 L 2.88,0 L 1.92,1.68 L 1.44,0.24 L 0.24,0.24 L 0,0"
         style="fill:#1f1a17;fill-opacity:1;fill-rule:evenodd;stroke:none"
         id="path133" />
    </g>
    <g
       id="g135"
       transform="matrix(1.25,0,0,-1.25,371.08393,244.61397)">
      <path
         d="M 0,0 L 0.24,-0.96 L 1.44,-0.72 L 1.92,-1.2 L 3.36,-1.2 L 4.32,-0.24 L 2.88,0.48 L 1.68,0.96 L 0.96,0.24 L 0,0"
         style="fill:#1f1a17;fill-opacity:1;fill-rule:evenodd;stroke:none"
         id="path137" />
    </g>
    <g
       id="g139"
       transform="matrix(1.25,0,0,-1.25,374.98393,237.11397)">
      <path
         d="M 0,0 L 0.48,0.48 L 1.92,-0.96 L -0.24,-0.72 L 0,-0.24 L 0,0"
         style="fill:#1f1a17;fill-opacity:1;fill-rule:evenodd;stroke:none"
         id="path141" />
    </g>
    <g
       id="g143"
       transform="matrix(1.25,0,0,-1.25,367.18393,232.01397)">
      <path
         d="M 0,0 L -0.24,-0.96 L 0.24,-1.44 L 0.48,-1.44 L 0.96,-0.72 L 0.96,-0.24 L 0.72,0.48 L 0.48,0.24 L 0.24,0.48 L 0,0"
         style="fill:#1f1a17;fill-opacity:1;fill-rule:evenodd;stroke:none"
         id="path145" />
    </g>
    <g
       id="g147"
       transform="matrix(1.25,0,0,-1.25,391.78393,239.51397)">
      <path
         d="M 0,0 L -23.94,-4.08 L 0,-0.72 L 0,0"
         style="fill:#1f1a17;fill-opacity:1;fill-rule:evenodd;stroke:none"
         id="path149" />
    </g>
    <g
       id="g151"
       transform="matrix(1.25,0,0,-1.25,368.38393,252.71397)">
      <path
         d="M 0,0 L -5.7,4.32 L 0.24,-0.48 L 0,0"
         style="fill:#1f1a17;fill-opacity:1;fill-rule:evenodd;stroke:none"
         id="path153" />
    </g>
    <g
       id="g155"
       transform="matrix(1.25,0,0,-1.25,372.28393,238.61397)">
      <path
         d="M 0,0 L -7.2,-3.36 L 0,-0.48 L 0,0"
         style="fill:#1f1a17;fill-opacity:1;fill-rule:evenodd;stroke:none"
         id="path157" />
    </g>
    <g
       id="g159"
       transform="matrix(1.25,0,0,-1.25,353.75893,245.51397)">
      <path
         d="M 0,0 L 1.68,-0.48 L 3.12,0.72 L 5.04,-0.96 L 6.48,0 L 6.48,0.96 L 7.38,0.24 L 7.62,-0.24 L 8.1,-0.48 L 8.34,-0.48 C 6.74,-5.198 0.829,-4.879 -0.24,0 L 0,0"
         style="fill:#1f1a17;fill-opacity:1;fill-rule:evenodd;stroke:none"
         id="path161" />
    </g>
    <g
       id="g163"
       transform="matrix(1.25,0,0,-1.25,363.58393,240.71397)">
      <path
         d="M 0,0 L -1.62,1.44 L -3.78,1.92 L -5.22,1.68 L -6.66,0.72 L -7.62,-0.24 L -8.1,-1.68 L -7.38,-2.4 L -5.7,-2.16 L -3.78,-3.12 L -2.82,-1.92 L -3.3,-0.72 L -1.86,-0.96 L -1.62,0 L 0,0"
         style="fill:#1f1a17;fill-opacity:1;fill-rule:evenodd;stroke:none"
         id="path165" />
    </g>
    <g
       id="g167"
       transform="matrix(1.25,0,0,-1.25,339.95893,250.31397)">
      <path
         d="M 0,0 L 12.72,3.12 L 0,0.24 L 0,0"
         style="fill:#1f1a17;fill-opacity:1;fill-rule:evenodd;stroke:none"
         id="path169" />
    </g>
    <g
       id="g171"
       transform="matrix(1.25,0,0,-1.25,340.25893,244.91397)">
      <path
         d="M 0,0 L 11.76,-0.48 L -0.24,0.24 L 0,0"
         style="fill:#1f1a17;fill-opacity:1;fill-rule:evenodd;stroke:none"
         id="path173" />
    </g>
    <g
       id="g175"
       transform="matrix(1.25,0,0,-1.25,346.55893,251.81397)">
      <path
         d="M 0,0 L 6.96,4.08 L 0,0.24 L 0,0"
         style="fill:#1f1a17;fill-opacity:1;fill-rule:evenodd;stroke:none"
         id="path177" />
    </g>
    <g
       id="g179"
       transform="matrix(1.25,0,0,-1.25,350.45893,242.21397)">
      <path
         d="M 0,0 L 3.84,-1.92 L -0.24,0.24 L 0,0"
         style="fill:#1f1a17;fill-opacity:1;fill-rule:evenodd;stroke:none"
         id="path181" />
    </g>
    <g
       id="g183"
       transform="matrix(1.25,0,0,-1.25,347.75893,243.71397)">
      <path
         d="M 0,0 L 5.76,-0.96 L 0.24,0.24 L 0,0"
         style="fill:#1f1a17;fill-opacity:1;fill-rule:evenodd;stroke:none"
         id="path185" />
    </g>
    <g
       id="g187"
       transform="matrix(1.25,0,0,-1.25,344.45893,252.71397)">
      <path
         d="M 0,0 L 0.24,0.48 L -0.48,0.72 L -0.72,0.48 L -1.44,0.96 L -1.68,0 L -0.96,-0.96 L -0.72,-0.24 L -0.24,-0.24 L 0,0"
         style="fill:#1f1a17;fill-opacity:1;fill-rule:evenodd;stroke:none"
         id="path189" />
    </g>
    <g
       id="g191"
       transform="matrix(1.25,0,0,-1.25,349.85893,246.11397)">
      <path
         d="M 0,0 L 0,0.72 L -0.72,0.48 L -0.96,0.96 L -1.92,0.96 L -2.4,0.24 L -1.68,-0.24 L -0.72,-0.48 L -0.48,0 L 0,0"
         style="fill:#1f1a17;fill-opacity:1;fill-rule:evenodd;stroke:none"
         id="path193" />
    </g>
    <g
       id="g195"
       transform="matrix(1.25,0,0,-1.25,347.75893,249.71397)">
      <path
         d="M 0,0 L -0.48,-0.24 L -1.2,0.48 L 0,0.48 L 0,0"
         style="fill:#1f1a17;fill-opacity:1;fill-rule:evenodd;stroke:none"
         id="path197" />
    </g>
    <g
       id="g199"
       transform="matrix(1.25,0,0,-1.25,353.75893,251.81397)">
      <path
         d="M 0,0 L 0.24,0.72 L -0.24,0.96 L -0.96,0.96 L -1.68,0.24 L -1.2,-0.24 L -0.72,0 L -0.48,-0.24 L 0,0"
         style="fill:#1f1a17;fill-opacity:1;fill-rule:evenodd;stroke:none"
         id="path201" />
    </g>
    <g
       id="g203"
       transform="matrix(1.25,0,0,-1.25,335.15893,248.81397)">
      <path
         d="M 0,0 L 16.08,2.16 L 0,0.24 L 0,0"
         style="fill:#1f1a17;fill-opacity:1;fill-rule:evenodd;stroke:none"
         id="path205" />
    </g>
    <g
       id="g207"
       transform="matrix(1.25,0,0,-1.25,351.65893,241.31397)">
      <path
         d="M 0,0 L 3.36,-2.4 L -0.24,0.24 L 0,0"
         style="fill:#1f1a17;fill-opacity:1;fill-rule:evenodd;stroke:none"
         id="path209" />
    </g>
    <g
       id="g211"
       transform="matrix(1.25,0,0,-1.25,349.25893,248.81397)">
      <path
         d="M 0,0 L 4.32,1.44 L 0,0.24 L 0,0"
         style="fill:#1f1a17;fill-opacity:1;fill-rule:evenodd;stroke:none"
         id="path213" />
    </g>
    <g
       id="g215"
       transform="matrix(1.25,0,0,-1.25,365.08393,238.31397)">
      <path
         d="M 0,0 L -0.96,-0.72 L -0.72,-1.2 L 0.24,-0.72 L 0.48,-1.44 L 2.16,0 L 2.88,1.44 L 1.44,0.24 L 0.48,0.24 L 0,0"
         style="fill:#1f1a17;fill-opacity:1;fill-rule:evenodd;stroke:none"
         id="path217" />
    </g>
    <g
       id="g219"
       transform="matrix(1.25,0,0,-1.25,360.65893,229.01397)">
      <path
         d="M 0,0 L 0.24,1.2 L 0.72,0.96 L 0.96,1.68 L 1.38,1.68 L 1.86,0.24 L 1.2,-0.48 L 0.72,-1.2 L 0.48,-0.24 L 0,0"
         style="fill:#1f1a17;fill-opacity:1;fill-rule:evenodd;stroke:none"
         id="path221" />
    </g>
    <g
       id="g223"
       transform="matrix(1.25,0,0,-1.25,342.35893,246.41397)">
      <path
         d="M 0,0 L 0.48,0.24 L 1.92,-0.72 L -0.24,-0.48 L -0.24,-0.24 L 0,0"
         style="fill:#1f1a17;fill-opacity:1;fill-rule:evenodd;stroke:none"
         id="path225" />
    </g>
    <g
       id="g227"
       transform="matrix(1.25,0,0,-1.25,366.28393,248.51397)">
      <path
         d="M 0,0 L 0.96,-0.72 L 2.4,-0.96 L 3.6,-1.2 L 3.6,-0.48 L 3.12,0 L 1.44,0.48 L 1.2,0.24 L 0.24,0.48 L 0,0"
         style="fill:#1f1a17;fill-opacity:1;fill-rule:evenodd;stroke:none"
         id="path229" />
    </g>
    <g
       id="g231"
       transform="matrix(1.25,0,0,-1.25,346.55893,256.01397)">
      <path
         d="M 0,0 L 8.16,7.44 L -0.48,0.48 L 0,0"
         style="fill:#1f1a17;fill-opacity:1;fill-rule:evenodd;stroke:none"
         id="path233" />
    </g>
    <g
       id="g235"
       transform="matrix(1.25,0,0,-1.25,371.08393,253.61397)">
      <path
         d="M 0,0 L -8.82,6.48 L -0.24,-0.24 L 0,0"
         style="fill:#1f1a17;fill-opacity:1;fill-rule:evenodd;stroke:none"
         id="path237" />
    </g>
    <g
       id="g239"
       transform="matrix(1.25,0,0,-1.25,374.68393,248.21397)">
      <path
         d="M 0,0 L -9.84,1.44 L -0.24,-0.96 L 0,0"
         style="fill:#1f1a17;fill-opacity:1;fill-rule:evenodd;stroke:none"
         id="path241" />
    </g>
    <g
       id="g243"
       transform="matrix(1.25,0,0,-1.25,367.18393,229.01397)">
      <path
         d="M 0,0 L -4.26,-8.4 L 0.48,-0.24 L 0,0"
         style="fill:#1f1a17;fill-opacity:1;fill-rule:evenodd;stroke:none"
         id="path245" />
    </g>
    <g
       id="g247"
       transform="matrix(1.25,0,0,-1.25,363.88393,226.01397)">
      <path
         d="M 0,0 L -2.58,-10.08 L 0.48,-0.24 L 0,0"
         style="fill:#1f1a17;fill-opacity:1;fill-rule:evenodd;stroke:none"
         id="path249" />
    </g>
    <g
       id="g251"
       transform="matrix(1.25,0,0,-1.25,367.48393,219.71397)">
      <path
         d="M 0,0 L -5.46,-15.36 L -4.5,-15.84 L 0.96,-0.48 L 0,0"
         style="fill:#1f1a17;fill-opacity:1;fill-rule:evenodd;stroke:none"
         id="path253" />
    </g>
    <g
       id="g255"
       transform="matrix(1.25,0,0,-1.25,367.75432,284.21397)">
      <path
         d="M 0,0 L 0.96,1.44 L 1.68,0 L 2.4,0.48 L 1.44,1.68 L 2.88,2.16 L 2.64,2.88 L 1.2,2.4 L 1.2,3.84 L 0.48,3.84 L 0.48,2.4 L -0.72,2.88 L -0.96,2.16 L 0.24,1.68 L -0.48,0.48 L 0,0"
         style="fill:#1f1a17;fill-opacity:1;fill-rule:evenodd;stroke:none"
         id="path257" />
    </g>
    <g
       id="g259"
       transform="matrix(1.25,0,0,-1.25,360.78672,278.21397)">
      <path
         d="M 0,0 L 0.96,1.2 L 1.68,0 L 2.34,0.48 L 1.44,1.68 L 2.82,1.92 L 2.58,2.88 L 1.2,2.4 L 1.2,3.84 L 0.48,3.84 L 0.48,2.4 L -0.96,2.88 L -1.2,1.92 L 0.24,1.68 L -0.72,0.48 L 0,0"
         style="fill:#1f1a17;fill-opacity:1;fill-rule:evenodd;stroke:none"
         id="path261" />
    </g>
    <g
       id="g263"
       transform="matrix(1.25,0,0,-1.25,368.43302,287.51397)">
      <path
         d="M 0,0 L -0.48,-1.2 L -1.92,-1.44 L -1.92,-2.4 L -0.24,-2.4 L -0.24,-7.2 L 1.2,-7.2 L 1.2,0 L 0,0"
         style="fill:#1f1a17;fill-opacity:1;fill-rule:evenodd;stroke:none"
         id="path265" />
    </g>
    <g
       id="g267"
       transform="matrix(1.25,0,0,-1.25,374.27561,278.21397)">
      <path
         d="M 0,0 L 0.96,1.2 L 1.68,0 L 2.4,0.48 L 1.44,1.68 L 2.88,1.92 L 2.64,2.88 L 1.44,2.4 L 1.44,3.84 L 0.48,3.84 L 0.48,2.4 L -0.72,2.88 L -0.96,1.92 L 0.24,1.68 L -0.72,0.48 L 0,0"
         style="fill:#1f1a17;fill-opacity:1;fill-rule:evenodd;stroke:none"
         id="path269" />
    </g>
    <path
       id="path273"
       style="fill:none;stroke:#1f1a17;stroke-width:0.89874995;stroke-linecap:round;stroke-linejoin:round;stroke-miterlimit:10;stroke-dasharray:none;stroke-opacity:1"
       d="M 323.53215,258.03897 L 368.75715,303.03897 L 413.75715,258.03897 L 368.75715,213.11397 L 323.53215,258.03897 z"
       clip-path="none"
       sodipodi:nodetypes="ccccc" />
  </g>
</svg>
