<?xml version="1.0" encoding="utf-8"?>
<!-- Generator: Adobe Illustrator 16.0.3, SVG Export Plug-In . SVG Version: 6.00 Build 0)  -->
<!DOCTYPE svg PUBLIC "-//W3C//DTD SVG 1.1//EN" "http://www.w3.org/Graphics/SVG/1.1/DTD/svg11.dtd">
<svg version="1.1"
	 id="svg3336" xmlns:svg="http://www.w3.org/2000/svg" xmlns:dc="http://purl.org/dc/elements/1.1/" xmlns:inkscape="http://www.inkscape.org/namespaces/inkscape" xmlns:rdf="http://www.w3.org/1999/02/22-rdf-syntax-ns#" xmlns:cc="http://creativecommons.org/ns#" xmlns:sodipodi="http://sodipodi.sourceforge.net/DTD/sodipodi-0.dtd" inkscape:version="0.91 r13725" sodipodi:docname="ADR 9A.svg"
	 xmlns="http://www.w3.org/2000/svg" xmlns:xlink="http://www.w3.org/1999/xlink" x="0px" y="0px" width="226.941px"
	 height="226.941px" viewBox="0 0 226.941 226.941" enable-background="new 0 0 226.941 226.941" xml:space="preserve">
<rect x="33.859" y="34.138" transform="matrix(0.7071 -0.7071 0.7071 0.7071 -47.0521 113.3524)" fill="#FFFFFF" width="158.883" height="158.668"/>
<path id="path3626" inkscape:connector-curvature="0" stroke="#000000" stroke-width="0.14" stroke-linejoin="round" stroke-miterlimit="10" d="
	M1.328,112.77l-1.193,1.242l6.109,6.115l1.194-1.263L1.328,112.77z M13.522,124.898l-1.17,1.243l6.11,6.115l1.17-1.242
	L13.522,124.898z M25.74,137.032l-1.169,1.263l6.108,6.09l1.17-1.243L25.74,137.032z M37.958,149.185l-1.193,1.24l6.109,6.088
	l1.193-1.242L37.958,149.185z M50.153,161.384l-1.169,1.241l6.108,6.04l1.169-1.266L50.153,161.384z M62.371,173.514l-1.17,1.24
	l6.086,6.04l1.193-1.239L62.371,173.514z M74.589,185.642l-1.194,1.266l6.11,6.016l1.192-1.241L74.589,185.642z M86.784,197.794
	l-1.169,1.242l6.109,6.017l1.169-1.242L86.784,197.794z M99.003,209.924l-1.17,1.241l6.087,6.111l1.194-1.264L99.003,209.924z
	 M111.224,222.053l-1.194,1.24l2.913,2.842l0.566,0.645l3.864-3.891l-1.234-1.172l-3.266,3.249l0.637,0.548l0.626-0.621
	L111.224,222.053z M122.246,215.605l1.245,1.172l6.027-6.09l-1.234-1.192L122.246,215.605z M134.395,203.406l1.242,1.169
	l6.109-6.039l-1.265-1.17L134.395,203.406L134.395,203.406z M146.592,191.277l1.263,1.17l6.078-6.111l-1.233-1.171L146.592,191.277z
	 M158.738,179.053l1.233,1.194l6.109-6.113l-1.233-1.169L158.738,179.053z M170.955,166.852l1.233,1.194l6.108-6.042l-1.264-1.193
	L170.955,166.852z M183.141,154.723l1.266,1.169l6.019-6.087l-1.245-1.194L183.141,154.723z M195.288,142.522l1.245,1.171
	l6.108-6.113l-1.244-1.17L195.288,142.522z M207.506,130.371l1.244,1.193l6.109-6.111l-1.264-1.173L207.506,130.371L207.506,130.371
	z M219.704,118.165l1.265,1.194l5.966-5.964l-1.334-1.313l-1.246,1.243l0.699,0.688l0.617-0.619l-0.617-0.555L219.704,118.165z
	 M218.247,107.21l1.264-1.244l-6.107-6.085l-1.266,1.244L218.247,107.21z M206.05,95.011l1.244-1.244l-6.038-6.045l-1.234,1.274
	L206.05,95.011z M193.905,82.882l1.242-1.243l-6.109-6.115l-1.242,1.243L193.905,82.882z M181.687,70.682l1.265-1.263l-6.11-6.095
	l-1.265,1.243L181.687,70.682z M169.498,58.483l1.234-1.264l-6.037-6.024l-1.235,1.243L169.498,58.483z M157.352,46.323l1.233-1.232
	l-6.107-6.116l-1.233,1.264L157.352,46.323z M145.135,34.123l1.233-1.242l-6.079-6.106l-1.264,1.264L145.135,34.123z
	 M132.988,21.995l1.266-1.244l-6.109-6.105l-1.245,1.244L132.988,21.995z M120.791,9.795l1.243-1.263l-6.108-6.083l-1.244,1.231
	L120.791,9.795z M109.837,6.116l-1.264-1.264l-6.109,6.116l1.265,1.243L109.837,6.116z M97.618,18.325l-1.242-1.243l-6.108,6.015
	l1.242,1.263L97.618,18.325z M85.399,30.454l-1.24-1.243l-6.109,6.034l1.241,1.244L85.399,30.454z M73.205,42.583l-1.264-1.243
	l-6.11,6.034l1.265,1.244L73.205,42.583z M60.987,54.733l-1.241-1.263l-6.109,6.104l1.24,1.244L60.987,54.733z M48.769,66.862
	l-1.241-1.244l-6.109,6.085l1.241,1.273L48.769,66.862z M36.574,78.99l-1.265-1.244l-6.108,6.116l1.265,1.243L36.574,78.99z
	 M24.356,91.14l-1.24-1.264l-6.11,6.115l1.242,1.243L24.356,91.14z M12.066,103.268l-1.242-1.242l-6.108,6.095l1.266,1.243
	L12.066,103.268z"/>
<path id="path3628" inkscape:connector-curvature="0" stroke="#000000" stroke-width="0.14" stroke-linejoin="round" stroke-miterlimit="10" d="
	M112.942,211.165l0.497,0.478l0.546-0.476l97.273-97.226l0.476-0.546l-98.295-98.273l-0.496,0.576L15.12,112.921l-0.548,0.475
	l0.549,0.545L112.942,211.165z M16.172,112.921l-0.55,0.474l0.55,0.546l97.813-97.223l-0.546-0.546l-0.496,0.546l97.265,97.223
	l0.476-0.546l-0.477-0.475l-97.265,97.218l0.498,0.478l0.546-0.477L16.172,112.921z"/>
<g>
	
		<path id="path3620" inkscape:connector-curvature="0" stroke="#000000" stroke-width="0.14" stroke-linejoin="round" stroke-miterlimit="10" d="
		M25.406,88.996l0,23.773l-23.6-0.071L25.406,88.996z"/>
	
		<path id="path3622" inkscape:connector-curvature="0" stroke="#000000" stroke-width="0.14" stroke-linejoin="round" stroke-miterlimit="10" d="
		M41.156,113.467V73.31l16.298-16.577v56.734H41.156z"/>
	
		<path id="path3624" inkscape:connector-curvature="0" stroke="#000000" stroke-width="0.14" stroke-linejoin="round" stroke-miterlimit="10" d="
		M73.133,113.467l0-71.843l15.75-17.193v89.037H73.133z"/>
	
		<path id="path3632" inkscape:connector-curvature="0" stroke="#000000" stroke-width="0.14" stroke-linejoin="round" stroke-miterlimit="10" d="
		M105.185,112.769l0-104.167l7.565-9.218l8.182,8.601l0.001,104.784H105.185z"/>
	
		<path id="path3634" inkscape:connector-curvature="0" stroke="#000000" stroke-width="0.14" stroke-linejoin="round" stroke-miterlimit="10" d="
		M152.284,112.769l0.001-72.459L136.61,23.783v88.986H152.284L152.284,112.769z"/>
	
		<path id="path3636" inkscape:connector-curvature="0" stroke="#000000" stroke-width="0.14" stroke-linejoin="round" stroke-miterlimit="10" d="
		M184.962,112.77V72.824l-16.303-16.303v56.248L184.962,112.77z"/>
	
		<path id="path3638" inkscape:connector-curvature="0" stroke="#000000" stroke-width="0.14" stroke-linejoin="round" stroke-miterlimit="10" d="
		M201.326,89.107v23.663l23.798,0.15L201.326,89.107z"/>
</g>
<g>
	
		<path id="path3630" inkscape:connector-curvature="0" stroke="#000000" stroke-width="0.14" stroke-linejoin="round" stroke-miterlimit="10" d="
		M104.972,196.744h16.3l-0.001-2.578l-16.3-0.001L104.972,196.744z"/>
	
		<path id="path3640" inkscape:connector-curvature="0" stroke="#000000" stroke-width="0.14" stroke-linejoin="round" stroke-miterlimit="10" d="
		M116.068,178.216l-0.071-0.953l-0.263-0.838l-0.436-0.691l-0.616-0.549l-0.698-0.287l-0.828-0.071l-0.769,0.072l-0.688,0.286
		l-0.546,0.478l-0.364,0.691l-0.262,0.836l-0.071,0.979l0.07,0.885l0.263,0.762l0.436,0.622l0.546,0.501l0.688,0.263l0.839,0.071
		l0.839-0.071l0.617-0.264l0.547-0.499l0.436-0.55l0.262-0.766L116.068,178.216z M116.138,182.943l-0.698,0.552l-0.829,0.429
		l-0.91,0.263l-1.021,0.072l-1.265-0.143l-1.172-0.264l-0.981-0.503l-0.901-0.764l-0.698-0.81l-0.546-1.053l-0.263-1.17
		l-0.141-1.265l0.141-1.385l0.333-1.241l0.546-1.1l0.77-0.978l0.97-0.764l1.052-0.55l1.244-0.358l1.386-0.07l1.598,0.143
		l1.314,0.429l1.194,0.74l0.949,0.979l0.769,1.313l0.546,1.529l0.354,1.814l0.071,2.076l-0.07,2.221l-0.355,2.006l-0.616,1.671
		l-0.769,1.386l-1.021,1.099l-1.275,0.763l-1.445,0.501l-1.649,0.19l-1.457-0.142l-1.335-0.406l-1.102-0.764l-0.829-0.908
		l-0.558-1.17L107.259,186h3.671l0.223,0.765l0.474,0.548l0.688,0.334l0.911,0.073l0.839-0.12l0.688-0.358l0.545-0.693l0.436-0.906
		l0.263-1.24L116.138,182.943z"/>
</g>
<path id="path3734" inkscape:connector-curvature="0" fill="none" stroke="#000000" stroke-width="0.5663" stroke-linejoin="round" stroke-miterlimit="10" d="
	M130.995,129.689l0.476-0.213l0.283-0.407l0.143-0.549l0.069-0.549v-0.693l0.558,1.242l0.282,1.169l0.05,1.193l-0.121,1.243
	l0.688-0.479l0.335-0.572l0.292-0.693l0.142-0.833l0.264,0.764l0.212,0.692v0.692l-0.07,0.762l-0.334,0.765l-0.576,0.908
	l0.576-0.143l0.404-0.334l0.283-0.43l0.263-0.478l0.214-0.407l-0.142,1.242l-0.214,1.17l-0.333,1.121l-0.476,0.883l-0.647,0.837
	l-0.88,0.62l-1.052,0.358l-1.244,0.144l0.769-0.502l0.617-0.69l0.334-0.767l0.364-0.811l-0.484,0.263l-0.355,0.143l-0.354,0.073
	l-0.333,0.071l0.333-0.765l0.212-0.479l0.142-0.285v-0.215l-0.354,0.286l-0.405,0.334l-0.364,0.431l0.071-1.124v-0.882v-0.766
	l-0.071-0.835l-0.262-0.906l-0.143,0.477l-0.069,0.692l-0.142,0.693l-0.122,0.692l-0.283,0.503l-0.364-0.36l-0.264-0.406
	l-0.283-0.431l-0.282-0.548l-0.121,0.622l0.071,0.691l0.12,0.693l0.142,0.905l0.001,1.123l-0.546-0.501l-0.437-0.621l-0.263-0.693
	l-0.283-0.764l-0.263-0.765l-0.071,0.838l0.071,0.691l0.121,0.62l-0.05,0.001h-0.07l-0.072,0.001l-0.07-0.073l0,0h-0.071
	l-0.069-0.072l-0.153-0.119l-0.212-0.143l-0.192-0.144l0.334,0.836l0.293,0.764l0.283,0.621l0.335,0.622l0.404,0.43l0.646,0.332
	l0.829,0.215l-1.527-0.143l-1.264-0.287l-0.951-0.405l-0.718-0.55l-0.546-0.621l-0.403-0.643l-0.214-0.765l-0.222-0.765
	l-0.111-0.739l-0.071-0.766l-0.152-0.69l-0.212-0.694l0.699,0.05l0.424,0.069l0.404,0.072l0.405,0.217l0.646,0.334l-0.212-0.623
	l-0.071-0.405v-0.287l0.07-0.261v-0.359l-0.07-0.549l-0.223-0.692l0.436,0.216l0.263,0.333l0.283,0.288l0.284,0.263l0.414,0.286
	l0.213-1.05l0.141-0.766l0.001-0.81l-0.142-0.837l-0.213-1.053l0.758,0.288l0.476,0.406l0.436,0.551l0.262,0.69l0.354,0.716
	l0.212-0.979v-0.764l-0.142-0.765l-0.283-0.621l-0.191-0.688l-0.141-0.696l-0.001-0.767l0.546-1.195l0.071,0.577l0.212,0.77
	l0.263,0.614l0.151,0.476l0.477,0.698l0.424,0.615l0.404,0.626l0.295,0.644l0.212,0.739v0.764L130.995,129.689"/>
<g>
	
		<path id="path3642" inkscape:connector-curvature="0" stroke="#000000" stroke-width="0.14" stroke-linejoin="round" stroke-miterlimit="10" d="
		M91.437,123.231l17.632,0.001l0,7.352l0,7.283v7.426v7.688l-0.142,0.907l-0.497,0.763l-0.769,0.692l-1.021,0.549l-1.193,0.432
		l-1.315,0.332l-1.528,0.216l-1.527,0.072l-1.529-0.001l-1.527-0.143l-1.526-0.215l-1.383-0.335l-1.171-0.429l-1.05-0.55
		l-0.763-0.692l-0.549-0.765l-0.144-0.835L91.437,123.231z"/>
	
		<path id="path3644" inkscape:connector-curvature="0" fill="none" stroke="#FFFFFF" stroke-width="0.5663" stroke-linejoin="round" stroke-miterlimit="10" d="
		M91.306,123.099l17.631,0.001l0,7.353l0,7.282v7.426v7.688l-0.141,0.907l-0.496,0.763l-0.768,0.694l-1.022,0.548l-1.193,0.431
		l-1.315,0.335l-1.528,0.213l-1.526,0.073h-1.526l-1.529-0.144l-1.528-0.215l-1.383-0.333l-1.17-0.432l-1.051-0.55l-0.763-0.69
		l-0.547-0.766l-0.144-0.835L91.306,123.099"/>
	
		<path id="path3646" inkscape:connector-curvature="0" stroke="#000000" stroke-width="0.14" stroke-linejoin="round" stroke-miterlimit="10" d="
		M141.746,156.801V139.18l-5.634-0.001h-5.542h-5.634h-5.815l-1.598,0.144l-1.386,0.479l-1.244,0.69l-1.051,0.908l-0.901,1.121
		l-0.697,1.241l-0.547,1.313l-0.283,1.457l-0.12,1.457v1.457l0.263,1.384l0.495,1.385l0.627,1.266l0.829,1.098l1.102,0.907
		l1.314,0.692l1.447,0.478l1.749,0.144L141.746,156.801L141.746,156.801z"/>
	
		<path id="path3648" inkscape:connector-curvature="0" fill="none" stroke="#FFFFFF" stroke-width="0.5663" stroke-linejoin="round" stroke-miterlimit="10" d="
		M141.615,156.669v-17.621h-5.632h-5.543h-5.633h-5.816l-1.598,0.144l-1.386,0.478l-1.243,0.692l-1.053,0.907l-0.9,1.122
		l-0.698,1.243l-0.545,1.313l-0.284,1.457l-0.122,1.455l0,1.457l0.262,1.384l0.496,1.385l0.626,1.268l0.83,1.097l1.104,0.907
		l1.313,0.693l1.456,0.476l1.74,0.145H141.615"/>
	
		<path id="path3650" inkscape:connector-curvature="0" stroke="#000000" stroke-width="0.14" stroke-linejoin="round" stroke-miterlimit="10" d="
		M145.63,147.99l-0.142-2.006l-0.213-1.814l-0.404-1.576l-0.576-1.385l-0.617-1.05l-0.698-0.621l-0.757-0.285l-0.84,0.285
		l-0.688,0.621l-0.627,1.05l-0.476,1.386l-0.425,1.575l-0.263,1.814l-0.071,2.007l0.072,2.007l0.262,1.884l0.425,1.6l0.476,1.385
		l0.628,0.957l0.687,0.69l0.84,0.216l0.758-0.215l0.699-0.692l0.616-0.956l0.576-1.383l0.404-1.602l0.213-1.886L145.63,147.99z"/>
	
		<path id="path3652" inkscape:connector-curvature="0" fill="none" stroke="#FFFFFF" stroke-width="0.5663" stroke-linejoin="round" stroke-miterlimit="10" d="
		M145.499,147.86l-0.143-2.008l-0.212-1.813l-0.405-1.574l-0.576-1.387l-0.616-1.051l-0.698-0.62l-0.758-0.286l-0.841,0.285
		l-0.688,0.621l-0.627,1.052l-0.475,1.385l-0.426,1.574l-0.263,1.814l-0.071,2.008l0.072,2.005l0.263,1.886l0.425,1.601l0.475,1.384
		l0.627,0.956l0.688,0.693l0.839,0.213l0.759-0.215l0.698-0.69l0.616-0.957l0.576-1.384l0.405-1.602l0.212-1.886L145.499,147.86"/>
	
		<path id="path3654" inkscape:connector-curvature="0" stroke="#000000" stroke-width="0.14" stroke-linejoin="round" stroke-miterlimit="10" d="
		M104.417,161.385v-21.226l14.918-0.906l-0.001,20.675v0.19v0.143l-0.07,0.145l-0.143,0.072l-9.232,3.749l-0.627,0.143l-0.547-0.216
		L104.417,161.385L104.417,161.385z"/>
	
		<path id="path3656" inkscape:connector-curvature="0" fill="none" stroke="#FFFFFF" stroke-width="0.5663" stroke-linejoin="round" stroke-miterlimit="10" d="
		M104.285,161.253v-21.226l14.918-0.906l-0.001,20.675l0.001,0.192v0.142l-0.071,0.144l-0.142,0.071l-9.233,3.751l-0.627,0.143
		l-0.546-0.216L104.285,161.253"/>
	
		<path id="path3658" inkscape:connector-curvature="0" stroke="#000000" stroke-width="0.14" stroke-linejoin="round" stroke-miterlimit="10" d="
		M100.172,119.986l2.03,0.071l1.861,0.191l1.599,0.354l1.384,0.475l1.054,0.507l0.615,0.615l0.213,0.628l-0.213,0.687l-0.616,0.626
		l-1.053,0.476l-1.384,0.505l-1.598,0.264l-1.86,0.283l-2.03,0.07l-1.933-0.07l-1.863-0.284l-1.598-0.263l-1.384-0.505l-1.051-0.475
		l-0.62-0.627l-0.214-0.688l0.214-0.626l0.621-0.615l1.05-0.507l1.384-0.476l1.598-0.353l1.862-0.193L100.172,119.986z"/>
	
		<path id="path3660" inkscape:connector-curvature="0" fill="none" stroke="#FFFFFF" stroke-width="0.5663" stroke-linejoin="round" stroke-miterlimit="10" d="
		M100.039,119.855l2.03,0.07l1.862,0.192l1.598,0.353l1.386,0.477l1.051,0.504l0.618,0.618l0.211,0.626l-0.211,0.688l-0.617,0.626
		l-1.052,0.474l-1.386,0.506l-1.598,0.263l-1.86,0.285l-2.031,0.068l-1.933-0.069l-1.861-0.284l-1.599-0.262l-1.384-0.507
		l-1.05-0.474l-0.62-0.627l-0.215-0.688l0.215-0.626l0.621-0.617l1.049-0.505l1.384-0.476l1.599-0.354l1.861-0.193L100.039,119.855"
		/>
	
		<path id="path3662" inkscape:connector-curvature="0" fill="#FFFFFF" stroke="#FFFFFF" stroke-width="0.14" stroke-linejoin="round" stroke-miterlimit="10" d="
		M97.881,121.158h4.725v1.738l-0.213,0.262l-0.555,0.213l-0.759,0.07l-0.834,0.072l-0.883-0.071l-0.764-0.07l-0.575-0.214
		l-0.142-0.263V121.158z"/>
	
		<path id="path3664" inkscape:connector-curvature="0" fill="none" stroke="#FFFFFF" stroke-width="0.5663" stroke-linejoin="round" stroke-miterlimit="10" d="
		M97.75,121.028h4.725l0,1.737l-0.212,0.263l-0.557,0.213l-0.758,0.07l-0.835,0.071l-0.882-0.071l-0.764-0.07l-0.574-0.213
		l-0.143-0.263L97.75,121.028"/>
	
		<path id="path3666" inkscape:connector-curvature="0" fill="#FFFFFF" stroke="#FFFFFF" stroke-width="0.14" stroke-linejoin="round" stroke-miterlimit="10" d="
		M100.244,120.127l0.977,0.05l0.768,0.213l0.546,0.213l0.141,0.333l-0.141,0.364l-0.546,0.212l-0.768,0.192l-0.977,0.07l-1.027-0.07
		l-0.763-0.193l-0.573-0.211l-0.119-0.364l0.119-0.334l0.573-0.212l0.762-0.212L100.244,120.127z"/>
	
		<path id="path3668" inkscape:connector-curvature="0" stroke="#000000" stroke-width="0.14" stroke-linejoin="round" stroke-miterlimit="10" d="
		M100.243,120.39l0.835,0.07l0.688,0.142l0.435,0.212l0.191,0.264l-0.191,0.293l-0.435,0.213l-0.688,0.191h-0.835l-0.883-0.001
		l-0.645-0.19l-0.477-0.213l-0.216-0.293l0.216-0.263l0.477-0.213l0.645-0.142L100.243,120.39z"/>
	
		<path id="path3670" inkscape:connector-curvature="0" fill="none" stroke="#000000" stroke-width="0.5663" stroke-linejoin="round" stroke-miterlimit="10" d="
		M100.112,120.259l0.834,0.069l0.688,0.142l0.435,0.214l0.192,0.263l-0.192,0.292l-0.435,0.212l-0.688,0.193l-0.835-0.001h-0.883
		l-0.645-0.192l-0.478-0.211l-0.214-0.293l0.215-0.264l0.477-0.213l0.645-0.142L100.112,120.259"/>
	
		<path id="path3672" inkscape:connector-curvature="0" stroke="#000000" stroke-width="0.14" stroke-linejoin="round" stroke-miterlimit="10" d="
		M94.635,138.344l7.757-0.001v5.754l0,5.779v5.755l0,6.015l-0.262,0.623l-0.556,0.501l-0.759,0.333l-0.909,0.286l-1.049,0.073
		h-1.025l-0.979-0.072l-0.907-0.287l-0.691-0.333l-0.407-0.503l-0.213-0.621L94.635,138.344L94.635,138.344z"/>
	
		<path id="path3674" inkscape:connector-curvature="0" fill="none" stroke="#FFFFFF" stroke-width="0.5663" stroke-linejoin="round" stroke-miterlimit="10" d="
		M94.504,138.213h7.758l0,5.754l0,5.777v5.754l0,6.017l-0.263,0.621l-0.546,0.501l-0.769,0.334l-0.907,0.287l-1.049,0.073
		l-1.026-0.002l-0.978-0.07l-0.906-0.288l-0.694-0.334l-0.405-0.501l-0.215-0.622L94.504,138.213"/>
	
		<path id="path3676" inkscape:connector-curvature="0" stroke="#000000" stroke-width="0.14" stroke-linejoin="round" stroke-miterlimit="10" d="
		M98.526,136.959l1.168-0.001l1.051,0.216l0.83,0.286l0.556,0.335l0.213,0.429l-0.213,0.335l-0.555,0.359l-0.83,0.262l-1.051,0.215
		l-1.169,0.071l-1.193-0.072l-1.097-0.214l-0.835-0.263l-0.501-0.357l-0.191-0.335l0.191-0.43l0.501-0.334l0.835-0.286l1.098-0.216
		H98.526z"/>
	
		<path id="path3678" inkscape:connector-curvature="0" fill="none" stroke="#FFFFFF" stroke-width="0.5663" stroke-linejoin="round" stroke-miterlimit="10" d="
		M98.392,136.827l1.171,0.001l1.049,0.214l0.84,0.287l0.547,0.335l0.212,0.429l-0.212,0.334l-0.546,0.359l-0.84,0.262l-1.05,0.216
		l-1.17,0.071l-1.193-0.07l-1.097-0.217l-0.835-0.263l-0.501-0.358l-0.19-0.335l0.19-0.428l0.501-0.334l0.836-0.286l1.096-0.217
		H98.392"/>
	
		<path id="path3680" inkscape:connector-curvature="0" fill="#FFFFFF" stroke="#FFFFFF" stroke-width="0.14" stroke-linejoin="round" stroke-miterlimit="10" d="
		M97.475,137.46l2.076,0.001v0.764l-0.143,0.119l-0.407,0.071l-0.477,0.071l-0.502-0.071l-0.405-0.071l-0.143-0.12L97.475,137.46z"
		/>
	
		<path id="path3682" inkscape:connector-curvature="0" fill="none" stroke="#FFFFFF" stroke-width="0.5663" stroke-linejoin="round" stroke-miterlimit="10" d="
		M97.343,137.328h2.077l0,0.764l-0.144,0.12l-0.406,0.072l-0.478,0.071l-0.5-0.071l-0.407-0.072l-0.143-0.12V137.328"/>
	
		<path id="path3684" inkscape:connector-curvature="0" fill="#FFFFFF" stroke="#FFFFFF" stroke-width="0.14" stroke-linejoin="round" stroke-miterlimit="10" d="
		M98.526,136.959l0.333,0.073l0.286-0.001l0.262,0.143l0.143,0.071l0.072,0.144l-0.071,0.072l-0.143,0.119l-0.264,0.072l-0.286,0.07
		h-0.334l-0.358,0.001l-0.287-0.073l-0.262-0.07l-0.144-0.12l-0.071-0.072l0.072-0.142l0.143-0.071l0.262-0.145l0.287,0.002
		L98.526,136.959z"/>
	
		<path id="path3686" inkscape:connector-curvature="0" stroke="#000000" stroke-width="0.14" stroke-linejoin="round" stroke-miterlimit="10" d="
		M98.526,137.103l0.261-0.001l0.287,0.073l0.216,0.071l0.118,0.071l0.073,0.145l-0.072,0.07l-0.12,0.047l-0.215,0.073l-0.286,0.071
		l-0.262-0.001h-0.286l-0.287-0.07l-0.191-0.073l-0.143-0.046l-0.071-0.072l0.071-0.143l0.143-0.072l0.191-0.07l0.287-0.074
		L98.526,137.103z"/>
	
		<path id="path3688" inkscape:connector-curvature="0" fill="none" stroke="#000000" stroke-width="0.5663" stroke-linejoin="round" stroke-miterlimit="10" d="
		M98.393,136.971l0.264,0.001l0.287,0.071l0.213,0.071l0.121,0.072l0.071,0.144l-0.071,0.071l-0.121,0.046l-0.213,0.074l-0.287,0.07
		l-0.264-0.001h-0.286l-0.287-0.071l-0.19-0.072l-0.144-0.048l-0.071-0.071l0.071-0.142l0.144-0.072l0.191-0.07l0.286-0.073H98.393"
		/>
	
		<path id="path3690" inkscape:connector-curvature="0" stroke="#000000" stroke-width="0.14" stroke-linejoin="round" stroke-miterlimit="10" d="
		M88.24,137.532h4.94v5.062l0,5.133l0,5.111v5.347l-0.287,0.479l-0.478,0.356l-0.62,0.286l-0.763,0.051l-0.836,0.069l-0.69-0.119
		l-0.622-0.214l-0.5-0.43l-0.145-0.478L88.24,137.532L88.24,137.532z"/>
	
		<path id="path3692" inkscape:connector-curvature="0" fill="none" stroke="#FFFFFF" stroke-width="0.5663" stroke-linejoin="round" stroke-miterlimit="10" d="
		M88.108,137.4l4.94,0.001l0,5.062l0.001,5.134l0,5.109l0,5.348l-0.287,0.478l-0.476,0.358l-0.622,0.286l-0.763,0.05l-0.835,0.071
		l-0.693-0.121l-0.619-0.213l-0.501-0.431l-0.144-0.479V137.4"/>
	
		<path id="path3694" inkscape:connector-curvature="0" stroke="#000000" stroke-width="0.14" stroke-linejoin="round" stroke-miterlimit="10" d="
		M90.674,136.554l0.978,0.07l0.764,0.217l0.549,0.19l0.214,0.356l-0.215,0.335l-0.549,0.215l-0.764,0.214l-0.978,0.072l-0.979-0.072
		l-0.763-0.213l-0.477-0.216l-0.215-0.335l0.215-0.356l0.477-0.191l0.764-0.216L90.674,136.554z"/>
	
		<path id="path3696" inkscape:connector-curvature="0" fill="none" stroke="#FFFFFF" stroke-width="0.5663" stroke-linejoin="round" stroke-miterlimit="10" d="
		M90.543,136.423l0.979,0.071l0.763,0.214l0.548,0.19l0.216,0.358l-0.216,0.334l-0.547,0.218l-0.764,0.213l-0.978,0.071
		l-0.979-0.071l-0.763-0.214l-0.478-0.216l-0.214-0.336l0.215-0.357l0.478-0.19l0.764-0.215L90.543,136.423"/>
	
		<path id="path3698" inkscape:connector-curvature="0" fill="#FFFFFF" stroke="#FFFFFF" stroke-width="0.14" stroke-linejoin="round" stroke-miterlimit="10" d="
		M90.052,136.887h1.313l0,0.501l-0.143,0.146l-0.335,0.047l-0.359-0.001l-0.333-0.046l-0.144-0.146V136.887z"/>
	
		<path id="path3700" inkscape:connector-curvature="0" fill="none" stroke="#FFFFFF" stroke-width="0.5663" stroke-linejoin="round" stroke-miterlimit="10" d="
		M89.923,136.755h1.311v0.501l-0.142,0.146l-0.335,0.047l-0.356,0.001l-0.335-0.049l-0.143-0.145L89.923,136.755"/>
	
		<path id="path3702" inkscape:connector-curvature="0" fill="#FFFFFF" stroke="#FFFFFF" stroke-width="0.14" stroke-linejoin="round" stroke-miterlimit="10" d="
		M90.674,136.624l0.286,0.001l0.263,0.07l0.144,0.072l0,0.072l0,0.119l-0.143,0.073l-0.264-0.001l-0.286,0.071l-0.263-0.071h-0.214
		l-0.144-0.072l-0.07-0.12l0.07-0.069l0.144-0.073l0.215-0.072H90.674z"/>
	
		<path id="path3704" inkscape:connector-curvature="0" stroke="#000000" stroke-width="0.14" stroke-linejoin="round" stroke-miterlimit="10" d="
		M90.673,136.696h0.286l0.216,0.072l0.118,0.071l0,0.048l0,0.072l-0.119,0.072l-0.214,0.071h-0.287H90.46l-0.192-0.071l-0.143-0.073
		v-0.071v-0.047l0.144-0.071l0.191-0.072L90.673,136.696z"/>
	
		<path id="path3706" inkscape:connector-curvature="0" fill="none" stroke="#000000" stroke-width="0.5663" stroke-linejoin="round" stroke-miterlimit="10" d="
		M90.542,136.566h0.287l0.214,0.07l0.121,0.073l0,0.046l0,0.074l-0.12,0.07l-0.215,0.071h-0.286l-0.215,0.001l-0.191-0.073
		l-0.144-0.07v-0.073v-0.047l0.144-0.071l0.191-0.072L90.542,136.566"/>
	
		<path id="path3708" inkscape:connector-curvature="0" stroke="#000000" stroke-width="0.14" stroke-linejoin="round" stroke-miterlimit="10" d="
		M104.972,139.801l8.871-3.462l0.222-0.072l0.212-0.001l0.192,0.073l0.283,0.144l4.511,2.361l0.071,0.072l0.001,0.12l-0.072,0.145
		l-0.069,0.143l-0.072,0.072l-0.141,0.142l-8.951,3.821l-0.192,0.046h-0.214h-0.293l-0.211-0.046l-0.192-0.072l-4.249-2.793
		l-0.07-0.049v-0.144v-0.143l0.142-0.142l0.069-0.074L104.972,139.801z"/>
	
		<path id="path3710" inkscape:connector-curvature="0" fill="none" stroke="#FFFFFF" stroke-width="0.5663" stroke-linejoin="round" stroke-miterlimit="10" d="
		M104.841,139.668l8.87-3.461l0.222-0.072l0.213,0.001l0.193,0.071l0.282,0.143l4.512,2.364l0.069,0.07v0.12l-0.07,0.144
		l-0.07,0.144l-0.071,0.071l-0.141,0.144l-8.952,3.82l-0.192,0.048l-0.212,0.001H109.2l-0.212-0.049l-0.192-0.07l-4.248-2.795
		l-0.071-0.049v-0.144v-0.143l0.142-0.142l0.07-0.073L104.841,139.668"/>
	
		<path id="path3712" inkscape:connector-curvature="0" fill="#FFFFFF" stroke="#FFFFFF" stroke-width="0.14" stroke-linejoin="round" stroke-miterlimit="10" d="
		M107.803,139.68h3.277l0.001,1.171l-0.223,0.214l-0.404,0.145l-0.617,0.048l-0.719-0.001l-0.616-0.046l-0.477-0.146l-0.223-0.214
		L107.803,139.68z"/>
	
		<path id="path3714" inkscape:connector-curvature="0" fill="none" stroke="#FFFFFF" stroke-width="0.5663" stroke-linejoin="round" stroke-miterlimit="10" d="
		M107.674,139.55l3.276-0.001v1.17l-0.223,0.216l-0.404,0.144l-0.617,0.047l-0.718-0.001l-0.617-0.047l-0.475-0.144l-0.222-0.213
		V139.55"/>
	
		<path id="path3716" inkscape:connector-curvature="0" fill="#FFFFFF" stroke="#FFFFFF" stroke-width="0.14" stroke-linejoin="round" stroke-miterlimit="10" d="
		M109.474,138.988l0.839,0.048l0.617,0.217l0.222,0.284l-0.222,0.264l-0.617,0.215l-0.839,0.071l-0.901-0.071l-0.626-0.214
		l-0.213-0.265l0.212-0.285l0.627-0.216L109.474,138.988z"/>
	
		<path id="path3718" inkscape:connector-curvature="0" stroke="#000000" stroke-width="0.14" stroke-linejoin="round" stroke-miterlimit="10" d="
		M109.473,139.179l0.769,0.074l0.475,0.141l0.212,0.286l-0.212,0.191l-0.475,0.215l-0.77,0.072l-0.758-0.07l-0.546-0.216
		l-0.223-0.191l0.223-0.285l0.546-0.143L109.473,139.179z"/>
	
		<path id="path3720" inkscape:connector-curvature="0" fill="none" stroke="#000000" stroke-width="0.5663" stroke-linejoin="round" stroke-miterlimit="10" d="
		M109.352,139.048l0.758,0.073l0.475,0.142l0.214,0.287l-0.214,0.189l-0.475,0.217l-0.758,0.07l-0.768-0.071l-0.547-0.216
		l-0.212-0.19l0.213-0.285l0.546-0.143L109.352,139.048"/>
	
		<path id="path3722" inkscape:connector-curvature="0" fill="#FFFFFF" stroke="#FFFFFF" stroke-width="0.14" stroke-linejoin="round" stroke-miterlimit="10" d="
		M112.315,137.866l3.278,0.001l-0.001,1.17l-0.223,0.216l-0.404,0.141l-0.647,0.072h-0.688l-0.617-0.07l-0.476-0.145l-0.222-0.214
		L112.315,137.866z"/>
	
		<path id="path3724" inkscape:connector-curvature="0" fill="none" stroke="#FFFFFF" stroke-width="0.5663" stroke-linejoin="round" stroke-miterlimit="10" d="
		M112.184,137.735l3.276,0.001v1.17l-0.223,0.216l-0.404,0.143l-0.647,0.07h-0.688l-0.616-0.07l-0.477-0.145l-0.222-0.215V137.735"
		/>
	
		<path id="path3726" inkscape:connector-curvature="0" fill="#FFFFFF" stroke="#FFFFFF" stroke-width="0.14" stroke-linejoin="round" stroke-miterlimit="10" d="
		M113.985,137.175l0.839,0.07l0.616,0.216l0.223,0.262l-0.222,0.288l-0.616,0.214l-0.841,0.07l-0.9-0.07l-0.626-0.213l-0.212-0.289
		l0.212-0.261l0.626-0.217L113.985,137.175z"/>
	
		<path id="path3728" inkscape:connector-curvature="0" stroke="#000000" stroke-width="0.14" stroke-linejoin="round" stroke-miterlimit="10" d="
		M113.984,137.388l0.769,0.072l0.476,0.121l0.212,0.285l-0.212,0.215l-0.475,0.216l-0.769,0.047l-0.759-0.047l-0.546-0.216
		l-0.223-0.214l0.223-0.288l0.546-0.119L113.984,137.388z"/>
	
		<path id="path3730" inkscape:connector-curvature="0" fill="none" stroke="#000000" stroke-width="0.5663" stroke-linejoin="round" stroke-miterlimit="10" d="
		M113.852,137.256l0.771,0.073l0.474,0.12l0.213,0.286l-0.213,0.214l-0.475,0.215l-0.77,0.049l-0.758-0.049l-0.546-0.213
		l-0.222-0.215l0.221-0.289l0.547-0.118L113.852,137.256"/>
	
		<path id="path3732" inkscape:connector-curvature="0" stroke="#000000" stroke-width="0.14" stroke-linejoin="round" stroke-miterlimit="10" d="
		M131.127,129.821l0.475-0.215l0.284-0.405l0.141-0.55l0.071-0.549l0.001-0.693l0.555,1.242l0.284,1.17l0.05,1.193l-0.121,1.241
		l0.687-0.477l0.336-0.573l0.292-0.693l0.142-0.836l0.263,0.764l0.214,0.692v0.693l-0.072,0.764l-0.333,0.764l-0.576,0.909
		l0.577-0.143l0.404-0.336l0.283-0.431l0.262-0.475l0.214-0.407l-0.142,1.242l-0.214,1.168l-0.333,1.123l-0.476,0.883l-0.647,0.837
		l-0.879,0.62l-1.053,0.358l-1.243,0.143l0.768-0.501l0.617-0.692l0.333-0.765l0.365-0.811l-0.486,0.262l-0.354,0.144l-0.354,0.072
		l-0.333,0.071l0.333-0.763l0.213-0.479l0.142-0.285v-0.217l-0.354,0.287l-0.404,0.335l-0.365,0.431l0.071-1.124v-0.884v-0.764
		l-0.071-0.835l-0.263-0.907l-0.141,0.478l-0.072,0.691l-0.141,0.693l-0.122,0.692l-0.282,0.502l-0.364-0.357l-0.264-0.406
		l-0.283-0.432l-0.282-0.547l-0.122,0.618l0.07,0.692l0.123,0.693l0.141,0.907l-0.001,1.122l-0.546-0.502l-0.435-0.619l-0.263-0.691
		l-0.283-0.767l-0.264-0.764l-0.07,0.838l0.07,0.692l0.122,0.618l-0.051,0.001l-0.071-0.001h-0.07l-0.07-0.07l0,0h-0.07
		l-0.072-0.073l-0.15-0.118l-0.212-0.144l-0.193-0.144l0.334,0.836l0.294,0.765l0.282,0.62l0.335,0.623l0.403,0.429l0.647,0.333
		l0.83,0.215l-1.528-0.143l-1.264-0.287l-0.951-0.403l-0.718-0.552l-0.546-0.62l-0.404-0.645l-0.213-0.766l-0.223-0.763
		l-0.111-0.741l-0.08-0.763l-0.143-0.692l-0.212-0.691l0.697,0.046l0.426,0.072l0.404,0.071l0.404,0.216l0.647,0.333l-0.213-0.621
		l-0.07-0.405v-0.287l0.07-0.261v-0.36l-0.07-0.549l-0.222-0.691l0.435,0.216l0.263,0.333l0.282,0.287l0.283,0.261l0.415,0.288
		l0.212-1.051l0.143-0.763l-0.001-0.813l-0.142-0.835l-0.212-1.052l0.76,0.288l0.473,0.404l0.437,0.55l0.263,0.693l0.354,0.717
		l0.213-0.979v-0.764l-0.142-0.766l-0.283-0.62l-0.192-0.687l-0.142-0.699l-0.001-0.768l0.548-1.192l0.071,0.576l0.212,0.768
		l0.263,0.616l0.143,0.475l0.485,0.698l0.424,0.616l0.404,0.623l0.293,0.644l0.214,0.742v0.764L131.127,129.821L131.127,129.821z"/>
	
		<path id="path3736" inkscape:connector-curvature="0" fill="#FFFFFF" stroke="#FFFFFF" stroke-width="0.14" stroke-linejoin="round" stroke-miterlimit="10" d="
		M129.953,138.773l-0.768,0.146l0.889,4.081l-2.154,2.293l1.457,0.906l-1.385,2.771l2.841-3.414l-1.456-0.621l2.913-2.625
		l0.576,4.367l1.527-0.907l0.88,3.821l-0.192-5.132l-1.597,0.834l-0.548-4.585l-2.031,1.529L129.953,138.773L129.953,138.773z"/>
	
		<path id="path3738" inkscape:connector-curvature="0" fill="none" stroke="#FFFFFF" stroke-width="0.5663" stroke-linejoin="round" stroke-miterlimit="10" d="
		M109.27,143.561l0,20.39"/>
	
		<path id="path3740" inkscape:connector-curvature="0" fill="#FFFFFF" stroke="#FFFFFF" stroke-width="0.14" stroke-linejoin="round" stroke-miterlimit="10" d="
		M144.507,150.759l0.001-5.824l-1.861-0.001l-0.282,0.216l-0.214,0.548l-0.142,0.765l-0.081,0.908v0.977l0.082,0.885l0.141,0.764
		l0.213,0.573l0.283,0.19H144.507z"/>
	
		<path id="path3742" inkscape:connector-curvature="0" fill="none" stroke="#FFFFFF" stroke-width="0.5663" stroke-linejoin="round" stroke-miterlimit="10" d="
		M144.376,150.627v-5.825h-1.862l-0.281,0.216l-0.214,0.548l-0.142,0.765l-0.08,0.907v0.98l0.08,0.884l0.142,0.762l0.214,0.574
		l0.282,0.19L144.376,150.627"/>
	
		<path id="path3744" inkscape:connector-curvature="0" fill="#FFFFFF" stroke="#FFFFFF" stroke-width="0.14" stroke-linejoin="round" stroke-miterlimit="10" d="
		M145.63,147.846l-0.071-1.169l-0.212-0.979l-0.283-0.62l-0.333-0.263l-0.365,0.261l-0.263,0.622l-0.213,0.978l-0.07,1.17
		l0.07,1.193l0.213,0.957l0.263,0.691l0.365,0.216l0.333-0.214l0.283-0.693l0.212-0.956L145.63,147.846z"/>
	
		<path id="path3746" inkscape:connector-curvature="0" stroke="#000000" stroke-width="0.14" stroke-linejoin="round" stroke-miterlimit="10" d="
		M145.347,147.846l-0.071-1.025l-0.142-0.836l-0.263-0.549l-0.293-0.216l-0.354,0.215l-0.192,0.549l-0.142,0.836l-0.07,1.026
		l0.07,1.051l0.142,0.835l0.192,0.55l0.355,0.217l0.292-0.217l0.264-0.549l0.141-0.835L145.347,147.846z"/>
	
		<path id="path3748" inkscape:connector-curvature="0" fill="none" stroke="#000000" stroke-width="0.5663" stroke-linejoin="round" stroke-miterlimit="10" d="
		M145.216,147.716l-0.071-1.028l-0.142-0.836l-0.264-0.548l-0.293-0.215l-0.353,0.215l-0.193,0.548l-0.141,0.837l-0.072,1.027
		l0.072,1.05l0.141,0.836l0.192,0.548l0.354,0.216l0.292-0.216l0.265-0.548l0.141-0.837L145.216,147.716"/>
</g>
</svg>
