<?xml version="1.0"?>
<svg xmlns="http://www.w3.org/2000/svg" viewBox="0 0 912 912">
<path d="m456 906.84 450.84-450.84-450.84-450.84-450.84 450.84z" stroke-dashoffset="20" stroke="#000" stroke-dasharray="40,20" stroke-width="8" fill="#f5f014"/>
<path d="m456 852.61 396.61-396.61-396.61-396.61-396.61 396.61 396.61 396.61m0-777.31c7.71 7.712 372.99 372.99 380.7 380.7l-380.7 380.7-380.7-380.7 380.7-380.7zm65.27 221.18c-2.94-7.76-7.24-14.85-12.61-20.99-3.0862-3.5275-6.5175-6.7412-10.254-9.58-6.2175-4.7238-13.258-8.4188-20.871-10.83-2.5338-.8025-5.1338-1.4538-7.785-1.9625-4.24-.81375-8.6112-1.2538-13.086-1.2538-5.7638 0-11.359.71625-16.711 2.0462-2.88.71625-5.6825 1.62-8.4075 2.6838-5.5575 2.1725-10.765 5.0375-15.515 8.4988-2.0775 1.5138-4.0725 3.1325-5.965 4.8625-5.8588 5.3575-10.78 11.715-14.518 18.796-5.075 9.615-7.9612 20.564-7.9612 32.191 0 1.8312.09375 3.64.2325 5.4338 2.1688 27.838 20.828 51.034 46.226 59.835 7.0888 2.4575 14.694 3.8088 22.619 3.8088s15.53-1.3512 22.62-3.8088c23.95-8.2988 41.916-29.388 45.709-55.106.49-3.3162.75125-6.7088.75125-10.162 0-8.6162-1.5912-16.858-4.4725-24.464m-64.61 70.7c-25.535 0-46.238-20.701-46.238-46.239 0-25.536 20.702-46.238 46.238-46.238 25.538 0 46.238 20.701 46.238 46.238 0 25.538-20.7 46.239-46.238 46.239zm52.66 294.85c-.76625 2.355-1.8925 4.2375-3.3812 5.6488-2.1725 2.065-4.99 3.4425-8.4525 4.1288-2.1725.4325-5.9762.76125-10.536.97875v13.46h19.099v52.321h18.965v-79.688h-15.03c0 .68875-.22125 1.7388-.66375 3.15m-53.56 76.41h20.83v-19.795h-20.83v19.795zm-13.57-46.18c-5.4538-4.4825-12.798-7.4825-20.125-7.4825-3.6225 0-8 .6-10.685 2.1825l1.0912-9.6875h33.31v-16.709h-47.575l-6.0212 45.154 17.886.43625c1.3912-2.3875 2.78-4.7988 9.5962-4.7988 6.815 0 10.469 7.3962 10.469 11.56 0 4.1625-4.0125 11.775-10.469 11.775-6.4575 0-10.034-3.2038-10.034-10.366h-19.204c-.69875 10.154 2.3138 15.969 7.7288 20.065 5.415 4.0975 12.335 6.1475 20.762 6.1475 10.464 0 18.32-2.925 23.571-8.7762 5.2512-5.8525 7.8788-12.5 7.8788-19.946 0-8.555-2.7275-15.071-8.1812-19.554m-70.69-410.57 5.205 27.07 5.43 10.604 5.6812 7.0125c-.13875-1.7938-.2325-3.6025-.2325-5.4338 0-11.628 2.8862-22.576 7.9612-32.191l-.11875-6.495-3.535-14.224-1.6088-10.482 9.255 9.0062 5.5938 3.1838 4.9312.215c1.8925-1.73 3.8875-3.3488 5.965-4.8625l-2.4525-6.0488 5.1375-17.41 2.4188-17.708 5.095 22.639 5.3162 10.029c2.725-1.0638 5.5275-1.9675 8.4075-2.6838l-.23875-10.455 10.114-19.751.22-15.241 12.522 14.8 2.6562 16.235 4.5238 13.62c2.6512.50875 5.2512 1.16 7.785 1.9625l13.5-20.76 7.37 31.6c3.7362 2.8388 7.1675 6.0525 10.254 9.58l4.2-3.5188 9.4188-6.6288-.1125 24.19-.895 6.9462c2.8812 7.6062 4.4725 15.848 4.4725 24.464 0 3.4538-.26125 6.8462-.75125 10.162l10.69-17.054 7.795-23.111v-28.2l-7.695-31.809v5.1875l-8.3738 7.895-9.7288 4.515 2.8262-13.228 4.9862-16.568-5.4275-19.439-3.0638 8.1738-5.4325 5.63-9.505 4.5112 3.5162-13.074v-15.566l-14.375-28.2v5.8662l-2.715 12.635-5.2075 9.9238-9.9538 4.9638v-23.01l-5.43-18.048-7.4675-17.822-5.3962-21.911-5.69 24.631v16.68l-4.39 22.749-5.65 14.136-7.16-9.3612-3.1688-6.0912-1.81-6.3175-11.54-13.985 2.73 10.302-5.6712 10.676-2.2638 15.791 2.8125 22.656-10.156-5.3488-6.6875-9.8638-9.05-10.828 2.49 15.341.1225 25.83 2.51 13.542-12.361-7.5625-11.089-8.3475 2.49 23.914v29.778m15.99 104.5v20.848h138.59v-20.848"/>
</svg>